<svg version="1.1" id="Layer_1" xmlns="http://www.w3.org/2000/svg" x="0" y="0" width="20" height="20" viewBox="0 0 20 20" xml:space="preserve"><path d="M9.5 19a.51.51 0 0 1-.243-.062c-.094-.053-2.326-1.302-4.592-3.348-1.341-1.21-2.411-2.447-3.183-3.68C.498 10.339 0 8.771 0 7.25A5.256 5.256 0 0 1 5.25 2c.98 0 2.021.367 2.931 1.034.532.39.985.86 1.319 1.359a5.536 5.536 0 0 1 1.318-1.359C11.729 2.367 12.769 2 13.75 2A5.256 5.256 0 0 1 19 7.25c0 1.521-.499 3.089-1.482 4.66-.77 1.232-1.842 2.47-3.182 3.68-2.266 2.046-4.498 3.295-4.592 3.348a.51.51 0 0 1-.243.062H9.5z" id="heart_filled" fill="#EB5B3E"/></svg>