<svg version="1.1" id="Layer_1" xmlns="http://www.w3.org/2000/svg" x="0" y="0" width="500" height="500" viewBox="0 0 500 500" xml:space="preserve"><path fill="#333" d="M464.2 121.3c-25.8-42.7-64-77.2-109.5-98.3-2.3-1.1-4.7-2.1-7-3.1C317.7 7.1 284.7 0 250 0c-32.1 0-62.8 6.1-91.1 17.2-49.1 19.3-90.7 53.7-119 97.5C14.7 153.7 0 200.2 0 250c0 12.4.9 24.7 2.7 36.6C20.5 407.2 124.6 500 250 500c85.9 0 161.8-43.5 206.8-109.7 1.4-2.1 2.8-4.3 4.2-6.4 18.4-28.9 31.1-61.9 36.3-97.2 1.8-12 2.7-24.2 2.7-36.6 0-47.1-13.1-91.2-35.8-128.8zm-5.2 5.8c2.4 4 4.6 8.1 6.8 12.3-2.1-4.2-4.4-8.3-6.8-12.3zm-.6 10.3c0 22.5-10.6 42.5-27.1 55.3-3.3-10.4-7.4-20.3-12.3-29.9 14-10.3 26.9-21.9 38.8-34.5.4 3 .6 6 .6 9.1zm-28.1 142.3c-.4 2.4-.9 4.8-1.4 7.2-3.8 18.6-10.5 36.1-19.5 52.2-15.7-10.6-32.4-19.7-50.1-27.1 19.3-16.8 31.6-41.5 31.6-69.1 0-5.6-.5-11-1.5-16.3 4.4-2.9 9.7-4.6 15.3-4.6 15.1 0 27.3 12 27.9 26.9v1c.1 10.2-.7 20.2-2.3 29.8zm-107.9 93.6c9.7-8.4 15.8-20.8 15.8-34.6 0-4.1-.6-8.2-1.6-12 5.7-2.5 11.1-5.7 16.1-9.3 18.8 7.5 36.5 17 53 28.2-13.9 22.5-32.5 41.8-54.4 56.5-2.2 1.5-4.4 2.9-6.6 4.3-5.9 3.6-12.1 6.9-18.4 9.8.9-4.8 1.5-9.7 1.5-14.8-.2-10-2-19.4-5.4-28.1zm-148.6 42.8c-6.3-2.9-12.5-6.2-18.4-9.8-2.2-1.4-4.5-2.8-6.6-4.3-22-14.7-40.6-34-54.5-56.5 16.5-11.2 34.2-20.7 53-28.2 5 3.6 10.4 6.8 16.1 9.3-1 3.8-1.6 7.8-1.6 12 0 13.8 6.1 26.2 15.8 34.6-3.4 8.7-5.3 18.1-5.3 28 .1 5.1.6 10.1 1.5 14.9zM71 287c-.5-2.4-1-4.8-1.4-7.2-1.6-9.7-2.4-19.6-2.4-29.7 0-15.4 12.5-27.9 27.9-27.9 5.7 0 10.9 1.7 15.3 4.6-1 5.3-1.5 10.7-1.5 16.3 0 27.6 12.3 52.3 31.6 69.1-17.7 7.4-34.4 16.5-50.1 27.1-8.9-16.2-15.5-33.8-19.4-52.3zm13.6-130.7c-14-10.4-27-22.1-38.8-34.9 12.3-10.7 28.3-17.1 45.9-17.1 10.4 0 20.2 2.3 29.1 6.4-14.3 13.1-26.5 28.5-36.2 45.6zm3.2 9.8c.9-1.7 1.7-3.3 2.7-4.9 9.8-17.6 22.5-33.5 37.4-46.9.4-.3.7-.7 1.1-1 37.1 20.5 65.8 54.2 79.8 94.7-1.5-.2-3-.5-4.6-.8-2.6-.4-5.2-.9-7.8-1.4-14.2-2.8-28-6.6-41.3-11.5-2.5-.9-4.9-1.9-7.4-2.8-3.4-1.3-6.8-2.7-10.1-4.2-2.2-1-4.4-2-6.6-3.1-.1-.1-.3-.1-.4-.2-1.6 1.9-3.2 4-4.7 6-6.1 8.7-10.8 18.4-13.6 28.9-5.1-2.8-10.9-4.4-17.1-4.4-10.5 0-19.9 4.6-26.4 11.9 1-7.9 2.6-15.6 4.6-23.2.4-1.3.7-2.7 1.1-4 3.4-11.5 7.8-22.6 13.3-33.1zm83.4-80.9c2.2-1.1 4.5-2.1 6.8-3.1 22.1-9.5 46.4-14.8 72-14.8 27.9 0 54.3 6.3 77.9 17.5 2.3 1.1 4.5 2.2 6.7 3.3 10.8 5.7 21 12.4 30.5 20.1l.1.1c-40.8 23.4-71.7 62.3-84.4 108.7-4.1 15-6.3 30.9-6.3 47.2 0 9.3.8 18.5 2.1 27.4.2 1.6.5 3.2.8 4.8.4 2.1.9 4.3 1.3 6.4.1.6.3 1.1.4 1.7.5-.5 1-.9 1.6-1.3.3-.2.6-.4.9-.5.3-.2.7-.4 1-.6.4-.2.7-.3 1.1-.5.3-.1.6-.2 1-.3l1.2-.3c.8-.1 1.5-.2 2.3-.2 7.2 0 13 5.8 13 13 0 .8-.1 1.6-.2 2.4 0 .2-.1.4-.2.7-.1.6-.3 1.1-.5 1.6-.1.2-.2.4-.2.6-.3.7-.7 1.4-1.1 2-.4.6-.9 1.2-1.4 1.7l-.5.5c-.4.4-.8.7-1.3 1-.2.1-.4.3-.6.4-.6.4-1.3.8-2 1.1-1.6.7-3.3 1-5.1 1-.9 0-1.7-.1-2.5-.3-.8-.2-1.6-.4-2.3-.7-3.6-2.1-7.8-3.2-12.2-3.2-.4 0-.9.1-1.3.1-5.6.3-10.6 2.4-14.6 5.8v-.1c-.8.7-1.5 1.5-2.3 2.2v-.1l-.3.3c-.2.2-.4.5-.6.7-.7.9-1.4 1.8-2 2.8-.6-1-1.3-1.9-2.1-2.8-.2-.2-.4-.4-.5-.6-.1-.1-.2-.3-.3-.4v.1c-.7-.8-1.4-1.6-2.3-2.2-4-3.4-9.1-5.5-14.6-5.8-.4 0-.8-.1-1.3-.1-3.7 0-7.3.9-10.5 2.4l-.1.1c-.5.3-1 .5-1.5.7-.8.3-1.6.6-2.4.7-.9.2-1.7.3-2.6.3-1.8 0-3.5-.4-5.1-1-4.7-2-7.9-6.6-7.9-12 0-7.2 5.8-13 13-13 .8 0 1.6.1 2.3.2 1.4.3 2.8.7 4 1.4 1 .6 2 1.3 2.8 2.1.1-.6.3-1.1.4-1.7.5-2.1.9-4.3 1.3-6.4 1.9-10.5 2.9-21.2 2.9-32.2 0-16.3-2.2-32.1-6.3-47.2-12.7-46.4-43.5-85.3-84.3-108.7 11.1-9.1 23.3-16.8 36.3-23zm208 25.4c8.9-4.1 18.8-6.4 29.2-6.4 17.5 0 33.5 6.5 45.8 17.1-11.8 12.8-24.8 24.5-38.8 35-9.7-17-22-32.4-36.2-45.7zm-8.1 2.7c.4.3.7.7 1.1 1 14.8 13.3 27.4 29 37.2 46.4.5.9 1 1.9 1.5 2.8 6.1 11.2 11 23.2 14.6 35.6l.9 3.3c2.1 7.8 3.7 15.8 4.8 23.9-6.5-7.2-15.9-11.8-26.3-11.8-6.2 0-12 1.6-17.1 4.4-2.9-10.5-7.5-20.3-13.7-28.9-1.5-2.1-3-4.1-4.7-6-2.3 1.1-4.7 2.2-7 3.2-3.3 1.5-6.7 2.9-10.1 4.2-2.4 1-4.9 1.9-7.4 2.8-13.3 4.9-27.1 8.7-41.3 11.5-2.6.5-5.2 1-7.8 1.4-1.5.3-3 .5-4.6.8 14.1-40.4 42.8-74.1 79.9-94.6zm-42.6 212.6c.4 1.2.8 2.4 1.1 3.6.7 2.9 1.2 6 1.2 9.2 0 10.2-4 19.4-10.5 26.3-.7.8-1.5 1.5-2.2 2.2-.3.2-.5.5-.8.7-.6.6-1.3 1.1-2 1.6-.3.2-.7.5-1 .7-1.8 1.3-3.8 2.4-5.8 3.4-4.9 2.3-10.4 3.6-16.2 3.6-6.1 0-11.8-1.4-16.9-4-.8-.4-1.5-.8-2.3-1.2-.7-.4-1.5-.9-2.2-1.4-.7-.5-1.4-1-2-1.5-8.3-6.4-13.8-16-14.8-26.9.1.5.1 1 .2 1.5 1.6-7.9 8.6-13.8 17-13.8 2.5 0 4.9.5 7 1.5.5.2 1.1.5 1.6.8 2.6 1.2 5.5 1.9 8.5 1.9h.4c.7 0 1.3-.1 2-.1h.3c.2 0 .4-.1.6-.1h.3c.3 0 .5-.1.8-.1h.1c.6-.1 1.2-.3 1.8-.5h.1c.5-.2.9-.3 1.4-.5.1 0 .2-.1.2-.1.7-.3 1.4-.7 2.1-1.1.2-.1.5-.3.7-.4.6-.4 1.1-.7 1.6-1.1.2-.1.4-.3.5-.4.6-.5 1.2-1.1 1.8-1.7.2-.2.3-.4.5-.5.5-.6.9-1.1 1.4-1.7l.3-.3c.5-.7.9-1.5 1.3-2.2l.3-.6c.3-.7.7-1.5.9-2.3 0-.1.1-.1.1-.2.3-.8.5-1.7.6-2.6 0-.2.1-.4.1-.7.1-.9.2-1.8.2-2.8 0-3.7-1.1-7.2-2.8-10.2-.2-.3-.3-.6-.5-.8-3.6-5.6-10-9.4-17.2-9.4-1.3 0-2.5.1-3.8.4-.1-.4-.1-.8-.2-1.2-1.5-9.2-2.4-18.6-2.4-28.2 0-16.7 2.4-32.9 6.9-48.2 2.3-.3 4.7-.7 7-1.1 1.8 15.9 15.3 28.3 31.7 28.3 17.6 0 31.9-14.3 31.9-31.9 0-4.8-1.1-9.3-3-13.3 3.7-1.5 7.3-3 10.9-4.6 6.6 8.9 11.4 19.2 14 30.4.3 1.5.6 2.9.9 4.4v.3c.3 1.5.5 2.9.7 4.4.4 3.3.6 6.7.6 10.2 0 26.7-12.6 50.5-32 66-1.1.9-2.2 1.7-3.4 2.5-.1.1-.3.2-.4.3l-.9.6-2.7 1.8c-3.2 2-6.6 3.9-10.1 5.5-1.1.5-2.2 1-3.4 1.5h-.1c-1.1.5-2.3.9-3.4 1.3.5.5 1 1.6 1.4 2.8zm-159-4.7c-1.1-.5-2.3-.9-3.4-1.5h-.1c-3.5-1.6-6.9-3.5-10.2-5.5-.8-.5-1.7-1.1-2.5-1.7-.2-.1-.3-.2-.5-.3-.3-.2-.7-.4-1-.7-1.1-.8-2.2-1.7-3.3-2.5-19.5-15.4-32-39.2-32-66 0-18.6 6-35.7 16.2-49.6 3.6 1.6 7.3 3.2 10.9 4.6-1.9 4.1-3 8.6-3 13.3 0 17.6 14.3 31.9 31.9 31.9 16.4 0 29.9-12.4 31.7-28.3 2.3.4 4.6.8 7 1.1 4.5 15.3 6.9 31.4 6.9 48.2 0 10-.9 19.9-2.5 29.5-1.2-.2-2.5-.4-3.8-.4-7.2 0-13.5 3.7-17.2 9.4-2.1 3.2-3.3 7-3.3 11.1 0 8.5 5.2 15.7 12.6 18.8 1.3.6 2.7 1 4.1 1.3 1.1.2 2.2.3 3.3.3h.4c3.6 0 7.1-.9 10.1-2.7.1-.1.2-.2.3-.2-.1 0-.2.1-.2.2 2.1-.9 4.4-1.4 6.8-1.4 8.4 0 15.4 5.9 17 13.8.1-.5.1-1 .2-1.5-1 10.9-6.6 20.6-14.8 26.9-.7.5-1.3 1-2 1.5s-1.4.9-2.2 1.4c-.7.4-1.5.8-2.3 1.2-5.1 2.5-10.8 4-16.9 4-5.8 0-11.3-1.3-16.2-3.6-2.1-1-4-2.1-5.8-3.4-.3-.2-.7-.5-1-.7-.7-.5-1.4-1-2-1.6-.3-.2-.5-.5-.8-.7-.8-.7-1.5-1.4-2.2-2.2-6.5-6.9-10.5-16.1-10.5-26.3 0-3.2.4-6.2 1.2-9.2.3-1.2.6-2.4 1.1-3.6.4-1.2.9-2.3 1.4-3.4-1.1-.7-2.3-1.1-3.4-1.5zm-21.3-109.9c0-3.8.9-7.4 2.5-10.6 14.9 5.5 30.3 9.9 46.3 12.9-1.1 12.4-11.6 22.2-24.3 22.2-13.5-.1-24.5-11-24.5-24.5zM250 376.5c-4.5 0-8.7-1.1-12.4-2.9 2.3-2 4.4-4.1 6.3-6.5 2-2.6 3.8-5.4 5.2-8.3l.9-2.1.9 2.1c1.5 3 3.2 5.8 5.3 8.4 1.9 2.3 3.9 4.5 6.2 6.4-3.7 1.8-7.9 2.9-12.4 2.9zm19.1 1.8c6.8 4 14.7 6.3 23.2 6.3 3.2 0 6.3-.3 9.3-1-12.2 14.9-30.8 24.5-51.6 24.5s-39.3-9.5-51.6-24.5c3 .6 6.1 1 9.3 1 8.5 0 16.4-2.3 23.2-6.3 5.5 3.5 12 5.6 19.1 5.6 7 0 13.6-2.1 19.1-5.6zm-85.2-.5c.8.5 1.6 1 2.4 1.4 12.9 21.7 36.6 36.3 63.7 36.3s50.8-14.6 63.7-36.3c.8-.4 1.6-.9 2.4-1.4 2.6 7.3 4 15.2 4 23.5 0 6.4-.9 12.6-2.5 18.5-20.9 8.4-43.8 13-67.7 13-23.9 0-46.7-4.6-67.6-13-1.6-5.9-2.5-12.1-2.5-18.5.1-8.2 1.5-16.1 4.1-23.5zm70.2-44.4c.1-.8.3-1.5.4-2.3-.1.7-.3 1.5-.4 2.3zm.8-3.9c.1-.3.1-.6.2-.8-.1.2-.1.5-.2.8zm48.2-116c15.9-3 31.4-7.3 46.3-12.9 1.6 3.2 2.5 6.8 2.5 10.6 0 13.5-11 24.4-24.4 24.4-12.8.1-23.3-9.6-24.4-22.1zM250 440.2c22.7 0 44.4-4 64.5-11.3-10.7 25-35.6 42.6-64.5 42.6s-53.7-17.6-64.5-42.6c20.2 7.3 41.9 11.3 64.5 11.3zm181.2-213.5zm23.7-106.2c-3.1-4.9-6.3-9.7-9.8-14.4 3.5 4.7 6.8 9.5 9.8 14.4.1 0 .1 0 0 0zM353.3 30.6c36.5 17.2 68 43.3 91.8 75.4-10.9-5.9-23.4-9.2-36.7-9.2-12.7 0-24.6 3.1-35.2 8.5-.3-.3-.7-.6-1-.9-10.6-8.9-22.2-16.6-34.5-23.1 6.6-16.3 11.9-33.2 15.6-50.7zM250 7.4c34.2 0 66.8 7.1 96.3 20-3.6 17.5-8.8 34.4-15.4 50.5-24.6-11.6-52-18.1-80.9-18.1-26.6 0-51.9 5.5-74.9 15.4-6.5-16.2-11.5-33.1-14.9-50.5C188 13.6 218.3 7.4 250 7.4zm-96.8 20.2c3.5 17.5 8.6 34.5 15.1 50.7-14.6 7-28.2 15.7-40.4 26-.4.3-.7.6-1.1.9-10.6-5.4-22.5-8.5-35.1-8.5-13.3 0-25.8 3.4-36.8 9.3 25.2-34 59.1-61.2 98.3-78.4zm-99.5 80.2c-3 4.2-5.9 8.4-8.6 12.7 2.7-4.4 5.6-8.6 8.6-12.7zm-11.5 20.6C54.1 141 67 152.6 81 162.9c-4.9 9.5-9 19.5-12.3 29.8-16.5-12.9-27.1-32.8-27.1-55.3 0-3 .2-6.1.6-9zm-1.2-1.3c-2.3 4-4.6 8.1-6.7 12.2 2.1-4.2 4.3-8.2 6.7-12.2zM7.4 250c0-39.9 9.7-77.5 26.8-110.7.6 25.1 13.2 47.2 32.2 61-4.3 15.9-6.6 32.5-6.6 49.7 0 10.4.8 20.5 2.4 30.5-7.7.6-15.5 1-23.3 1-10 0-19.9-.6-29.6-1.6-1.2-9.8-1.9-19.8-1.9-29.9zm2.9 37.5c9.4.9 18.9 1.4 28.6 1.4 8.3 0 16.5-.4 24.7-1.1 4 19.8 11.1 38.5 20.8 55.6-14.5 10.4-27.9 22-40.2 34.8-17-27.1-28.7-57.8-33.9-90.7zM250 492.6c-83.9 0-158.1-42.9-201.6-107.9a280.4 280.4 0 0 1 39.8-34.8c13.9 22.5 32.4 41.8 54.1 56.8 2.2 1.5 4.4 3 6.7 4.4 8.6 5.4 17.7 10.2 27.2 14.2 10.1 31.1 39.4 53.7 73.8 53.7s63.7-22.6 73.8-53.7c9.5-4 18.5-8.7 27.1-14.2 2.3-1.4 4.5-2.9 6.7-4.4 21.7-15 40.2-34.3 54.1-56.8 14.4 10.3 27.7 22 39.9 34.8-43.5 65-117.6 107.9-201.6 107.9zm205.8-114.4c-12.3-12.8-25.8-24.5-40.2-34.8v.1c9.7-17.1 16.8-35.8 20.8-55.6 8.2.7 16.4 1.1 24.7 1.1 9.6 0 19.1-.5 28.5-1.4-5.1 32.8-16.8 63.5-33.8 90.6zm34.9-98.3c-9.7 1-19.6 1.6-29.6 1.6-7.9 0-15.7-.3-23.4-1 1.6-9.9 2.5-20.1 2.5-30.5v0c0-.3 0-.7-.1-1-.1-16.8-2.4-33.1-6.6-48.7 19-13.8 31.6-35.9 32.2-61 17.1 33.2 26.7 70.8 26.7 110.6.2 10.2-.5 20.2-1.7 30z"/></svg>