<svg version="1.1" id="Layer_1" xmlns="http://www.w3.org/2000/svg" x="0" y="0" width="50" height="50" viewBox="0 0 50 50" xml:space="preserve"><style type="text/css">.st0{fill:#333}</style><path class="st0" d="M46.4 12.1c-2.6-4.3-6.4-7.7-11-9.8l-.6-.3c-3-1.3-6.3-2-9.8-2-3.2 0-6.3.6-9.1 1.7C11 3.6 6.8 7.1 4 11.5 1.5 15.4 0 20 0 25c0 1.2.1 2.5.3 3.7C2 40.7 12.5 50 25 50c8.6 0 16.2-4.4 20.7-11 .1-.2.3-.4.4-.6 1.8-2.9 3.1-6.2 3.6-9.7.2-1.2.3-2.4.3-3.7 0-4.7-1.3-9.1-3.6-12.9zm-.5.6c.2.4.5.8.7 1.2-.2-.4-.5-.8-.7-1.2zm-.1 1c0 2.2-1.1 4.2-2.7 5.5-.3-1-.7-2-1.2-3 1.4-1 2.7-2.2 3.9-3.5v1zM43 28c0 .2-.1.5-.1.7-.4 1.9-1 3.6-2 5.2-1.6-1.1-3.2-2-5-2.7 1.9-1.7 3.2-4.2 3.2-6.9 0-.6-.1-1.1-.1-1.6.4-.3 1-.5 1.5-.5 1.5 0 2.7 1.2 2.8 2.7v.1c0 1-.1 2-.3 3zm-10.8 9.3c1-.8 1.6-2.1 1.6-3.5 0-.4-.1-.8-.2-1.2.6-.3 1.1-.6 1.6-.9 1.9.7 3.7 1.7 5.3 2.8-1.4 2.3-3.2 4.2-5.4 5.6-.2.1-.4.3-.7.4-.6.4-1.2.7-1.8 1 .1-.5.1-1 .1-1.5.1-.9-.1-1.8-.5-2.7zm-14.8 4.3c-.6-.3-1.2-.6-1.8-1-.2-.1-.4-.3-.7-.4-2.2-1.5-4.1-3.4-5.4-5.6 1.6-1.1 3.4-2.1 5.3-2.8.5.4 1 .7 1.6.9-.1.4-.2.8-.2 1.2 0 1.4.6 2.6 1.6 3.5-.3.9-.5 1.8-.5 2.8-.1.4 0 .9.1 1.4zM7.1 28.7c0-.2-.1-.5-.1-.7-.2-1-.2-2-.2-3 0-1.5 1.3-2.8 2.8-2.8.6 0 1.1.2 1.5.5-.1.5-.1 1.1-.1 1.6 0 2.8 1.2 5.2 3.2 6.9-1.8.7-3.4 1.6-5 2.7-1-1.6-1.7-3.3-2.1-5.2zm1.4-13.1c-1.4-1-2.7-2.2-3.9-3.5 1.2-1.1 2.8-1.7 4.6-1.7 1 0 2 .2 2.9.6-1.4 1.4-2.7 2.9-3.6 4.6zm.3 1c.1-.2.2-.3.2-.5 1-1.8 2.3-3.3 3.7-4.7l.1-.1c3.7 2 6.6 5.4 8 9.5-.2 0-.3-.1-.5-.1-.3 0-.5-.1-.8-.1-1.4-.3-2.8-.7-4.1-1.1-.2-.1-.5-.2-.7-.3-.3-.1-.7-.3-1-.4-.2-.1-.4-.2-.7-.3-.2.2-.3.4-.5.6-.6.9-1.1 1.8-1.4 2.9-.5-.3-1.1-.4-1.7-.4-1 0-2 .5-2.6 1.2.1-.8.3-1.6.5-2.3 0-.1.1-.3.1-.4.4-1.3.8-2.4 1.4-3.5zm8.3-8.1c.2-.1.4-.2.7-.3 2.2-1 4.6-1.5 7.2-1.5 2.8 0 5.4.6 7.8 1.8.2.1.4.2.7.3 1.1.6 2.1 1.2 3 2-4.1 2.3-7.2 6.2-8.4 10.9-.4 1.5-.6 3.1-.6 4.7 0 .9.1 1.8.2 2.7 0 .2 0 .3.1.5 0 .2.1.4.1.6v.2s.1-.1.2-.1c0 0 .1 0 .1-.1 0 0 .1 0 .1-.1h.5c.7 0 1.3.6 1.3 1.3V31.7c0 .1 0 .1-.1.2v.1c0 .1-.1.1-.1.2s-.1.1-.1.2h-.1l-.1.1h-.1c-.1 0-.1.1-.2.1-.2.1-.3.1-.5.1h-.3c-.1 0-.2 0-.2-.1-.4-.2-.8-.3-1.2-.3H27c-.6 0-1.1.2-1.5.6-.1.1-.2.1-.2.2l-.1.1c-.1.1-.1.2-.2.3-.1-.1-.1-.2-.2-.3l-.1-.1c-.1-.1-.1-.2-.2-.2-.4-.3-.9-.5-1.5-.6 0 .1-.1.2-.2.3.1-.1.1-.2.2-.3h-.1c-.4 0-.7.1-1 .2l-.1.1c-.1 0-.2.1-.2.1h-.3c-.2 0-.3 0-.5-.1-.5-.2-.8-.7-.8-1.2 0-.7.6-1.3 1.3-1.3h.2c.1 0 .3.1.4.1.1.1.2.1.3.2v-.2c0-.2.1-.4.1-.6.2-1 .3-2.1.3-3.2 0-1.6-.2-3.2-.6-4.7-1.3-4.6-4.3-8.5-8.4-10.9 1-.9 2.2-1.7 3.5-2.3zm20.8 2.6c.9-.4 1.9-.6 2.9-.6 1.8 0 3.4.6 4.6 1.7-1.2 1.3-2.5 2.5-3.9 3.5-.9-1.8-2.2-3.3-3.6-4.6zm-.8.2l.1.1c1.5 1.3 2.7 2.9 3.7 4.6.1.1.1.2.2.3.6 1.1 1.1 2.3 1.5 3.6 0 .1.1.2.1.3.2.8.4 1.6.5 2.4-.6-.7-1.6-1.2-2.6-1.2-.6 0-1.2.2-1.7.4-.3-1.1-.8-2-1.4-2.9-.1-.2-.3-.4-.5-.6-.2.1-.5.2-.7.3-.3.1-.7.3-1 .4-.2.1-.5.2-.7.3-1.3.5-2.7.9-4.1 1.1-.3.1-.5.1-.8.1-.2 0-.3.1-.5.1 1.3-3.9 4.2-7.2 7.9-9.3zm-4.2 21.3c0 .1.1.2.1.4.1.3.1.6.1.9 0 1-.4 1.9-1 2.6l-.2.2s-.1 0-.1.1l-.2.2s-.1 0-.1.1l-.6.3c-.5.2-1 .4-1.6.4-.6 0-1.2-.1-1.7-.4-.1 0-.2-.1-.2-.1-.1 0-.1-.1-.2-.1s-.1-.1-.2-.1c-.8-.6-1.4-1.6-1.5-2.7v.1c.2-.8.9-1.4 1.7-1.4.3 0 .5.1.7.1.1 0 .1.1.2.1.3.1.5.2.8.2H29.5s.1 0 .1-.1c.1 0 .1-.1.2-.1h.1c.1-.3.1-.3.2-.3h.1l.2-.2v-.1c0-.1.1-.1.1-.2s.1-.1.1-.2v-.1c0-.1.1-.2.1-.2 0-.1 0-.2.1-.3v-.1-.3c0-.4-.1-.7-.3-1v-.1c-.4-.6-1-.9-1.7-.9h-.4v-.1c-.2-.9-.2-1.9-.2-2.8 0-1.7.2-3.3.7-4.8.2 0 .5-.1.7-.1.2 1.6 1.5 2.8 3.2 2.8 1.8 0 3.2-1.4 3.2-3.2 0-.5-.1-.9-.3-1.3.4-.1.7-.3 1.1-.5.7.9 1.1 1.9 1.4 3 0 .1.1.3.1.4 0 .1 0 .3.1.4 0 .3.1.7.1 1 0 2.7-1.3 5.1-3.2 6.6l-.3.3s-.1 0-.1.1c-.1.1-.2.1-.3.2-.3.2-.7.4-1 .5-.1.1-.2.1-.3.1-.1 0-.2.1-.3.1-.2.4-.2.5-.1.6zm-16-.5c-.1 0-.2-.1-.3-.1-.4-.2-.7-.3-1-.6-.1-.1-.2-.1-.2-.2 0 0-.1 0-.1-.1l-.3-.3c-1.9-1.5-3.2-3.9-3.2-6.6 0-1.9.6-3.6 1.6-5 .4.2.7.3 1.1.5-.2.4-.3.9-.3 1.3 0 1.8 1.4 3.2 3.2 3.2 1.6 0 3-1.2 3.2-2.8.2 0 .5.1.7.1.4 1.5.7 3.1.7 4.8 0 1-.1 2-.3 2.9h-.4c-.7 0-1.4.4-1.7.9-.2.3-.3.7-.3 1.1 0 .8.5 1.6 1.3 1.9.1.1.3.1.4.1h.3c.4 0 .7-.1 1-.3.2-.1.4-.1.7-.1.8 0 1.5.6 1.7 1.4v-.1c-.1 1.1-.7 2.1-1.5 2.7-.1.2-.2.2-.3.3-.1 0-.1.1-.2.1s-.2.1-.2.1c-.5.3-1.1.4-1.7.4-.6 0-1.1-.1-1.6-.4l-.6-.3s-.1 0-.1-.1l-.2-.2s-.1 0-.1-.1c-.1-.1-.2-.1-.2-.2-.6-.7-1-1.6-1-2.6 0-.3 0-.6.1-.9 0-.1.1-.2.1-.4 0-.1.1-.2.1-.3-.1 0-.2 0-.4-.1zm-2.1-11c0-.4.1-.7.2-1.1 1.5.6 3 1 4.6 1.3-.1 1.2-1.2 2.2-2.4 2.2-1.3.1-2.4-1-2.4-2.4zM25 37.6c-.4 0-.9-.1-1.2-.3.2-.2.4-.4.6-.7.2-.3.4-.5.5-.8 0-.1.1-.1.1-.2 0 .1.1.1.1.2.1.3.3.6.5.8l.6.6c-.3.3-.8.4-1.2.4zm1.9.2c.7.4 1.5.6 2.3.6.3 0 .6 0 .9-.1-1.2 1.5-3.1 2.4-5.2 2.4s-3.9-1-5.2-2.4c.3.1.6.1.9.1.8 0 1.6-.2 2.3-.6.6.4 1.2.6 1.9.6.9 0 1.6-.2 2.1-.6zm-8.5 0c.1 0 .2.1.2.1 1.3 2.2 3.7 3.6 6.4 3.6s5.1-1.5 6.4-3.6c.1 0 .2-.1.2-.1.3.7.4 1.5.4 2.3 0 .6-.1 1.3-.2 1.8-2.1.8-4.4 1.3-6.8 1.3-2.4 0-4.7-.5-6.8-1.3-.2-.6-.2-1.2-.2-1.8 0-.8.1-1.6.4-2.3zm7-4.5v-.2.2zm.1-.3c0-.1 0-.1 0 0 0-.1 0-.1 0 0zm4.8-11.6c1.6-.3 3.1-.7 4.6-1.3.2.3.2.7.2 1.1 0 1.3-1.1 2.4-2.4 2.4-1.2 0-2.3-1-2.4-2.2zM25 44c2.3 0 4.4-.4 6.5-1.1-1.1 2.5-3.6 4.3-6.5 4.3s-5.4-1.8-6.4-4.3c2 .7 4.1 1.1 6.4 1.1zm18.1-21.3c0 .3.1.6.1.9 0-.3 0-.6-.1-.9zm2.4-10.6c-.3-.5-.6-1-1-1.4.4.4.7.9 1 1.4 0-.1 0-.1 0 0zm-10.2-9c3.6 1.7 6.8 4.3 9.2 7.5-1.1-.6-2.3-.9-3.7-.9-1.3 0-2.5.3-3.5.8l-.1-.1c-1.1-.9-2.2-1.7-3.5-2.3.7-1.6 1.3-3.3 1.6-5zM25 .7c3.4 0 6.7.7 9.6 2-.4 1.7-.9 3.4-1.5 5.1C30.6 6.6 27.9 6 25 6c-2.7 0-5.2.6-7.5 1.5-.6-1.6-1.2-3.3-1.5-5.1 2.8-1 5.8-1.7 9-1.7zm-9.7 2.1c.3 1.8.9 3.4 1.5 5.1-1.5.7-2.8 1.6-4 2.6l-.1.1c-1.1-.5-2.2-.8-3.5-.8-1.3 0-2.6.3-3.7.9 2.5-3.5 5.9-6.2 9.8-7.9zm-9.9 8c-.3.4-.6.8-.9 1.3.3-.5.6-.9.9-1.3zm-1.2 2c1.2 1.3 2.5 2.4 3.9 3.4-.5 1-.9 1.9-1.2 3C5.2 18 4.2 16 4.2 13.7v-.9zm-.1-.1c-.2.4-.5.8-.7 1.2.2-.4.5-.8.7-1.2zM.7 25c0-4 1-7.8 2.7-11.1.1 2.5 1.3 4.7 3.2 6.1-.4 1.6-.6 3.3-.6 5 0 1 .1 2.1.2 3-.8.1-1.5.1-2.3.1-1 0-2-.1-3-.2C.8 27 .7 26 .7 25zm.3 3.7c.9.1 1.9.1 2.9.1.8 0 1.7 0 2.5-.1.4 2 1.1 3.9 2.1 5.6-1.4 1-2.8 2.2-4 3.5-1.8-2.7-3-5.8-3.5-9.1zm24 20.6c-8.4 0-15.8-4.3-20.2-10.8 1.2-1.3 2.5-2.4 4-3.5 1.4 2.2 3.2 4.2 5.4 5.7.2.2.4.3.7.4.9.5 1.8 1 2.7 1.4 1 3.1 3.9 5.4 7.4 5.4 3.4 0 6.4-2.3 7.4-5.4.9-.4 1.9-.9 2.7-1.4.2-.1.4-.3.7-.4 2.2-1.5 4-3.4 5.4-5.7 1.4 1 2.8 2.2 4 3.5C40.8 45 33.4 49.3 25 49.3zm20.6-11.5c-1.2-1.3-2.6-2.4-4-3.5 1-1.7 1.7-3.6 2.1-5.6.8.1 1.6.1 2.5.1 1 0 1.9 0 2.9-.1-.6 3.3-1.8 6.4-3.5 9.1zm3.5-9.8c-1 .1-2 .2-3 .2-.8 0-1.6 0-2.3-.1.2-1 .2-2 .2-3V25c0-1.7-.2-3.3-.7-4.9 1.9-1.4 3.2-3.6 3.2-6.1 1.7 3.3 2.7 7.1 2.7 11.1.1.9 0 1.9-.1 2.9z"/></svg>