<svg version="1.1" id="Layer_1" xmlns="http://www.w3.org/2000/svg" x="0" y="0" width="1110" height="400" viewBox="0 0 1110 400" xml:space="preserve"><path fill="#4D4D4D" d="M400 200C400 89.5 310.5 0 200 0 89.7 0 .3 89.3 0 199.5v2.4C1.1 311.5 90.2 400 200 400c110.2 0 199.6-89.1 200-199.3v-.7zm-144.4 84.5c-8.2 9.9-22.1 14.9-32.9 11.9-8.5-2.3-14.2-9.7-16.6-19.9-.5-2 0-6.8 3.9-8.9 4-2.1 8.8-2.4 14.7.1 8.3 3.6 16.4 2 21.6-4.4 5.8-7 6.5-17.7 1.6-24.9-1.9-2.9-7.3-8.6-18.1-7.3-3.3-16.9-1.2-36.4 4.8-55.4h.1c3.1 10.2 9.8 17.3 19.1 19.7 2.3.6 4.7.9 7.1.9 9.1 0 18.2-4.2 23.7-11.4 5.4-7 6.6-15.6 3.6-24.2 1.2-.5 2.4-1.1 3.6-1.7 4.7 8.4 13.8 28.2 9 49.5-3.7 16.4-14.9 30.6-33.3 42.3l-8.3 4.9c6 12.7.4 24-3.6 28.8zm-123-33.8c-18.4-11.7-29.6-25.9-33.3-42.3-4.8-21.2 4.3-41.1 9-49.5 1.2.6 2.4 1.1 3.6 1.7-3 8.6-1.8 17.2 3.6 24.2 5.6 7.2 14.7 11.4 23.7 11.4 2.4 0 4.7-.3 7.1-.9 9.3-2.4 16-9.5 19.1-19.7h.1c6 19.1 8.1 38.6 4.8 55.4-10.8-1.3-16.1 4.4-18.1 7.3-4.9 7.2-4.2 17.9 1.6 24.9 5.2 6.3 13.3 8 21.6 4.4 5.9-2.5 10.8-2.2 14.7-.1 3.9 2.1 4.4 7 3.9 8.9-2.4 10.2-8.2 17.6-16.6 19.9-10.9 3-24.7-2.1-32.9-11.9-4-4.8-9.7-16.1-3.6-28.8l-8.3-4.9zM239 163.5c10.9-26.7 29.2-51.2 51.3-64.8 1.7-1.1 3.6-2.1 5.5-3.1 23.7 21.8 39.9 51.4 44.5 84.8-7.2-3.8-16.4-6-29.7-4.7-4.2-15.8-11.7-26.7-12.2-27.4l-2.9-4.1-4.4 2.3c-19.2 10.3-40.2 15-52.1 17zm36.5 14.4c-4.3 5.5-12.2 8.2-18.9 6.5-5-1.3-8.6-4.9-10.7-10.6 8.5-1.7 19.7-4.4 31.6-8.8 1.9 5.9.2 10.2-2 12.9zm8.9-88.8c-47.2 29-77.9 100.6-64.4 150.3l1.6 5.7 5.6-1.8c3.9-1.2 8.9-2 11.2 1.4 2 3 1.6 8.2-1 11.3-2 2.4-4.7 2.8-8.4 1.2-13.8-5.9-22.8-1.3-27 1.9-.8.6-1.5 1.2-2.1 1.8l-2.1-1.8c-4.2-3.3-13.2-7.9-27-1.9-3.7 1.6-6.4 1.2-8.4-1.2-2.5-3-3-8.3-1-11.3 2.3-3.4 7.3-2.7 11.2-1.4l5.6 1.8 1.6-5.7c13.5-49.7-17.2-121.4-64.4-150.3-.7-.4-1.4-.8-2.2-1.2 23.9-18.5 53.9-29.6 86.5-29.6h.2c32.5 0 62.5 11.1 86.5 29.6-.6.4-1.3.7-2 1.2zm-84.4 212c-2.3 0-4.5-.2-6.8-.7 2.4-2.1 4.7-4.8 6.8-8.3 2 3.4 4.3 6.1 6.8 8.3-2.3.5-4.5.7-6.8.7zm20.1 6.4c2.9.8 6 1.1 9.1 1.1 2.7 0 5.4-.3 8.1-.9-9.7 9.7-23 15.5-37.2 15.5h-.1-.1c-14.2 0-27.5-5.8-37.2-15.5 2.7.5 5.4.9 8.1.9 3.1 0 6.2-.4 9.1-1.1 6.1 3.3 13 5.1 20 5.1h.2c7 0 13.8-1.8 20-5.1zm-59.1-144c-11.9-2-32.8-6.8-52.2-17l-4.4-2.3-2.9 4.1c-.5.7-8 11.6-12.2 27.4-13.3-1.2-22.5 1-29.7 4.7 4.6-33.4 20.9-63 44.5-84.8 1.9 1 3.8 2 5.5 3.1 22.1 13.6 40.5 38.2 51.4 64.8zm-7 10.3c-2 5.6-5.6 9.2-10.7 10.6-6.7 1.7-14.7-1-18.9-6.5-2.1-2.7-3.9-7.1-2.1-12.9 12 4.4 23.2 7.2 31.7 8.8zm-66.9 13.1c-.9 7.4-.8 15.5 1 23.9 2.9 13.1 9.8 24.8 20.3 35.2-11.2 7.3-21.5 16-30.6 25.8-12.4-21.1-19.6-45.6-19.6-71.8 0-1.7.1-3.3.1-5 6.8-5.6 14.6-9.2 28.8-8.1zm30.2 66.9c3.1 2.4 6.3 4.7 9.8 7-1.7 10.7.9 22.1 8.6 31 .3.3.6.6.9 1-5 9-7.9 19-8.7 29.3-17.3-10.2-32.2-24.1-43.8-40.4 9.7-10.8 20.9-20.2 33.2-27.9zm27.1 48.8c11.4 19.6 32.5 32 55.5 32h.2c23 0 44.1-12.4 55.5-32 3.5 7.8 5.3 16.2 5.3 24.9v.5c-18.4 8.8-39 13.7-60.8 13.7h-.1-.1c-21.7 0-42.4-4.9-60.8-13.7v-.5c0-8.7 1.8-17.1 5.3-24.9zm119.9-10.8c7.7-8.9 10.3-20.3 8.6-31 3.5-2.2 6.8-4.6 9.8-7 12.3 7.7 23.5 17.1 33.2 27.8-11.6 16.4-26.6 30.2-43.9 40.4-.8-10.3-3.7-20.3-8.7-29.3.3-.3.7-.6 1-.9zm27.3-45.8c10.5-10.4 17.4-22.1 20.3-35.2 1.9-8.4 1.9-16.5 1-23.9 14.2-1.1 22 2.5 28.8 8.1.1 1.7.1 3.3.1 5 0 26.2-7.2 50.7-19.6 71.8-9.1-9.8-19.4-18.4-30.6-25.8zm45.6-113.9c9.8-7 18.1-14.4 23.8-19.8.1 8.8-2.6 22.6-16.4 37.4-2.1-6.1-4.6-11.9-7.4-17.6zm-5.5-10.1c-6.8-11.4-14.9-21.8-24.3-31 14.3-4.3 31.5-3.7 49 9.9-4.9 4.9-13.8 13.2-24.7 21.1zm-33.8-39.7c-11.3-9.4-24-17.2-37.7-23.1 10.7-6.9 20.2-15.7 27.9-25.9 22.9 12.2 43 28.9 59.1 49-15.7-6.7-32.5-6.7-49.3 0zm-51.5-28.2c-14.6-4.7-30.2-7.2-46.3-7.2h-.1-.1c-16.1 0-31.7 2.5-46.3 7.2-12.1-6.4-22.8-15.2-31.3-25.9 23.7-10.8 50-16.8 77.6-16.8h.2c27.7 0 53.9 6 77.6 16.8-8.5 10.7-19.2 19.5-31.3 25.9zm-106.6 5.1c-13.7 5.9-26.4 13.7-37.7 23.1-16.9-6.7-33.7-6.7-49.4 0 16.1-20.1 36.2-36.8 59.1-49 7.9 10.2 17.3 19 28 25.9zM92.6 91c-9.4 9.2-17.6 19.7-24.3 31-10.9-7.9-19.8-16.3-24.7-21.1 17.5-13.6 34.6-14.2 49-9.9zm-29.8 41.1c-2.8 5.7-5.3 11.5-7.4 17.6-13.8-14.8-16.6-28.6-16.4-37.4 5.6 5.4 14 12.7 23.8 19.8zm-11.2 29.8c-2.3 8.9-3.8 18.2-4.4 27.7-1.3 1.2-2.5 2.4-3.7 3.6-8 7.8-15.7 15.1-31.8 17.7-.2-3.6-.3-7.3-.3-10.9 0-27.8 6.1-54.3 17-78.1 1.8 11.3 7.8 25.6 23.2 40zM47 205.5c1 27.5 9.3 53.2 23 75.2-8.1 10-15.1 20.9-20.7 32.5-19.6-26-32.5-57.1-36.5-91 16.8-2.6 26.4-9.5 34.2-16.7zm29.6 85.1c13.6 18.4 31.2 33.7 51.6 44.6 2 19.1 11.5 35.9 25.5 47.6-38.1-9.6-71.6-30.9-96.5-59.8 5.1-11.6 11.7-22.4 19.4-32.4zm64.1 50.6c18.2 7.7 38.2 11.9 59.2 11.9h.2c21 0 41-4.2 59.2-11.9-6.2 27-30.4 47.1-59.2 47.1h-.1-.1c-28.8 0-52.9-20.2-59.2-47.1zm131.1-6c20.3-10.8 38-26.1 51.6-44.6 7.8 10 14.3 20.9 19.4 32.4-24.9 28.9-58.4 50.2-96.5 59.8 14-11.7 23.5-28.6 25.5-47.6zm58.2-54.4c13.7-22 22-47.7 23-75.2 7.8 7.2 17.4 14.1 34.3 16.7-4 33.9-17 65-36.5 91-5.7-11.7-12.6-22.6-20.8-32.5zm26.5-87.6c-1.2-1.2-2.5-2.4-3.7-3.6-.6-9.5-2.1-18.8-4.4-27.7 15.4-14.5 21.4-28.7 23.3-40 10.9 23.8 17 50.2 17 78.1 0 3.7-.1 7.3-.3 10.9-16.2-2.6-23.9-9.9-31.9-17.7z"/><g fill="#4D4D4D"><path d="M516.6 123.4l1.1-4v-5.9h-50.3v9.4l19.8.4v55.6h10.7V123l18.4.4zM537.6 150.5l30.7-.4v28.8h10.2v-65.4h-10.2v27.1h-30.7v-27.3h-5.2l-5.1 1.5v64.1h10.3zM635 169.5l-30.1-.4v-19.2l23.7.4h.4v-9.9h-24.1V123l27.6.4 1.1-5.2v-4.7h-33.9l-5.1 1.4v64H635zM712.5 169.5l-27.4-.4v-55.6h-5.2l-5 1.4v64h37.6zM764.4 169.5l-30.1-.4v-19.2l23.6.4h.4v-9.9h-24V123l27.5.4 1.1-5.2v-4.7H729l-5 1.4v64h40.4zM790.9 162.6l23.1-.4 5.8 16.4.1.3H831l-23.1-64.5-.3-.9h-9.8l-23.4 64.9-.2.5h10.9l5.8-16.3zm11.6-34.5l2 7.3 6.1 17.4h-16.3l6.1-17.5 2.1-7.2zM861.7 179.8c11.5 0 19.8-2.6 24-7.6 3.9-4.5 6.3-14.7 6.3-26 0-6.9-.5-19.4-4-25.8l-.2-.3c-5.1-5.1-12.9-7.5-24.5-7.5-6.4 0-14.6.7-20.4 1.7l-1.1.2v63.8l1.2.2c5.7.9 11.6 1.3 18.7 1.3zm-9.5-10.5v-46.1c1.9-.2 6.2-.7 11.2-.7 8 0 13.1 1.4 15.2 4.1 2.8 3.6 3.1 11.5 3.1 19.6 0 8.4-1.1 14.8-3.3 19.7-3 2.5-8.7 4-15.8 4-5.1 0-8.8-.4-10.4-.6zM906.7 114.8v64.1H917v-65.6h-5.2zM945.3 139l-.4-8 2.9 4.7 30.4 43.1.1.1h9.2v-65.4h-9.8v39.9l.4 8-2.8-4.7-30.5-43.2-.1-.2h-4.2l-5 1.5v64.1h9.8zM1049.8 175.5v-34H1023v5l1.1 4.9 15.4-.2V169c-2.3.5-6.4 1-10.6 1-3.1 0-10.6-.4-13.4-4.1-2.8-3.7-3.1-12.9-3.1-19.6 0-8 1.2-15 3.3-19.7 3-2.6 7.5-4 13.2-4 7.3 0 15.3 2.5 15.6 2.6l1 .3 3.5-5v-5l-1-.3c-4.4-1.3-9.2-2.5-19.1-2.5-8.7 0-16.5 2.9-20.5 7.6-4.4 5.1-6.3 17.1-6.3 26 0 4.3.3 19 4 25.8l.2.3c5 5 12.6 7.5 22.7 7.5 7.7 0 15.2-1.5 20.1-3.9l.7-.5z"/></g><g fill="#4D4D4D"><path d="M513.5 218.9c-2.2-2.2-7.8-6-21-6-6.1 0-12.2.7-17.4 2l-1 .3v64.1h10.3v-24.7h.1c1.5.1 3.2.2 6.6.2 4.6 0 15.6-.5 20.1-5.4 3.3-3.6 5-9.1 5-16.1 0-5.8-.7-10.4-2.2-13.8l-.5-.6zm-9.8 23.4c-2 1.4-7.9 2.5-11.9 2.5-2.7 0-5.2-.1-7.5-.3v-21.3c1.6-.1 4.5-.3 8.1-.3 5.3 0 9 .9 11 2.6 1.5 1.3 2.3 4 2.3 7.7 0 4-.8 7.8-2 9.1zM564.2 279l.1.2h13.8l-20.4-27.3c3.1-.9 5.3-2.2 6.8-3.8 3.2-3.6 5-9 5-15.6 0-6.7-1.2-10.9-2.2-13.2l-.2-.3c-1.8-1.8-7.2-6-20.2-6-6.1 0-12.2.7-17.4 2l-1 .3v64.1h10.3v-26c1.9.2 4.2.3 5.6.3h2l17.8 25.3zm-7.1-37.5c-2 1.4-7 2.1-11.1 2.1-2.7 0-5.2-.1-7.5-.3v-20.2c1.6-.1 4.5-.3 8.1-.3 4.6 0 8.2.9 10.1 2.6 1.4 1.3 2.3 3.9 2.3 7.1.1 3.3-.7 7.6-1.9 9zM589.7 220.5c-4.4 5.1-6.3 17.1-6.3 26 0 4.3.3 19 4 25.8l.2.3c5 5 12.6 7.5 22.7 7.5 8.7 0 16.6-2.9 20.5-7.6 4.4-5.1 6.3-17.1 6.3-26 0-4.3-.3-19-4-25.8l-.2-.3c-5-5-12.6-7.5-22.7-7.5-8.7 0-16.5 2.9-20.5 7.6zm3.9 26c0-8 1.2-15 3.3-19.7 3-2.6 7.5-4 13.2-4 3.1 0 10.6.4 13.4 4.1 2.8 3.7 3.1 12.9 3.1 19.6 0 8-1.2 15-3.3 19.7-3 2.6-7.5 4-13.2 4-3.1 0-10.6-.4-13.4-4.1-2.8-3.8-3.1-13-3.1-19.6zM692.5 233.1c0-5.8-.7-10.4-2.2-13.8l-.2-.3c-2.2-2.2-7.8-6-21-6-6.1 0-12.2.7-17.4 2l-1 .3v64.1H661v-24.7h.1c1.5.1 3.2.2 6.6.2 4.6 0 15.6-.5 20.1-5.4 3-3.9 4.7-9.3 4.7-16.4zm-10.3 0c0 4.1-.9 7.8-2 9.2-2 1.4-7.9 2.5-11.9 2.5-2.7 0-5.2-.1-7.5-.3v-21.3c1.6-.1 4.5-.3 8.1-.3 5.3 0 9 .9 11 2.6 1.5 1.1 2.3 3.9 2.3 7.6zM715.1 250.1l23.6.5h.4v-9.9h-24v-17.5l27.5.4 1.1-5.1v-4.7h-33.9l-5 1.4v64h40.3v-9.4l-30-.4zM799.7 232.5c0-6.7-1.2-10.9-2.2-13.2l-.2-.3c-1.8-1.8-7.2-6-20.2-6-6.1 0-12.2.7-17.4 2l-1.1.3v64.1h10.3v-26c1.9.2 4.2.3 5.6.3h2l17.9 25.6.1.2h13.8L788 251.9c3.1-.9 5.3-2.2 6.8-3.8 3.2-3.6 4.9-9 4.9-15.6zm-10.3 0c0 3.2-.8 7.6-2 9-2 1.4-7 2.1-11.1 2.1-3.3 0-5.9-.2-7.5-.3v-20.2c1.6-.1 4.5-.3 8.1-.3 4.6 0 8.2.9 10.1 2.6 1.6 1.2 2.4 3.8 2.4 7.1zM839.4 279.2v-56l18.3.4.3.1 1.1-4 .1-5.9h-50.4v9.4l19.8.4v55.6zM881.2 213.6h-5.3l-5 1.4v64.2h10.3zM940.7 269.8l-30.1-.4v-19.3l23.7.5h.4v-9.9h-24.1v-17.5l27.6.4 1.1-5.1v-4.7h-33.9l-5.1 1.4v64h40.4zM989 274.2c3.4-3.8 4-9.6 4-12.8 0-4.2-.8-7.8-2.3-10.2l-21.2-13.9c-3.2-2-5-5.2-5-8.8 0-1 .3-2.9.9-3.7 1.4-1.3 4.2-2 7.3-2l3.9.3 8.9 2.3 3.7-5.8v-4.1l-.9-.3c-.2-.1-6.2-2.3-13.5-2.3-13.9 0-20.6 5.6-20.6 17.1 0 4.2 1.6 8.8 3.1 11.5l19.7 13.3c4.3 2.9 5.4 4.4 5.4 8 0 2.4-.4 4-.6 4.6-1.5 1.2-5.4 2.5-8.6 2.5l-4.8-.3-11.7-4.1-.3-.1-3.8 6v3.9l.7.4c.3.2 7 4.1 17.8 4.1 8.4.2 14.4-1.7 17.9-5.6z"/></g><g fill="#4D4D4D"><path d="M516.6 320.7c-5-5-12.6-7.5-22.7-7.5-8.7 0-16.6 2.9-20.5 7.6-4.4 5.1-6.3 17.1-6.3 26 0 4.3.3 19 4 25.8l.2.3c5 5 12.6 7.5 22.7 7.5 8.7 0 16.5-2.9 20.5-7.6 4.4-5.1 6.3-17.1 6.3-26 0-4.3-.3-19-4-25.8l-.2-.3zm-6.2 26.1c0 8-1.2 15-3.3 19.7-3 2.6-7.5 4-13.2 4-3.1 0-10.6-.4-13.4-4.1-2.8-3.7-3.1-12.9-3.1-19.6 0-8 1.2-15 3.3-19.7 3-2.6 7.5-4 13.2-4 3.1 0 10.6.4 13.4 4.1 2.8 3.7 3.1 12.9 3.1 19.6zM532.5 315.5v64h10.3v-27l22.8.4h.4V343h-23.2v-19.5l26.7.4 1.1-5.1V314h-33zM600.9 323.5l19.8.4v55.6h10.8v-56l18.3.4h.3l1.1-3.9.1-6h-50.4zM701.8 341.2h-30.7v-27.3h-5.2l-5.1 1.4v64.2h10.3V351l30.7-.3v28.8h10.3V314h-10.3zM738.4 350.4l23.7.4h.4v-9.9h-24.1v-17.4l27.6.4 1.1-5.1V314h-33.9l-5 1.5v64h40.3V370l-30.1-.4zM861 357l-1.3 8-1.9-8.2-11.8-42.5-.1-.3h-9.4l-11.9 42.9-2 8.2-1.2-8.1-7.4-42.8-.1-.3h-5.1l-5.3 1.5 11.3 63.7.1.4h13.9l10.1-37.9 2.1-9.5 2.2 9.6 10 37.5v.3h14l11.2-65 .1-.5h-10.1zM935.1 320.7c-5-5-12.6-7.5-22.7-7.5-8.7 0-16.5 2.9-20.5 7.6-4.4 5.1-6.3 17.1-6.3 26 0 4.3.3 19 4 25.8l.2.3c5 5 12.6 7.5 22.7 7.5 8.7 0 16.6-2.9 20.5-7.6 4.4-5.1 6.3-17.1 6.3-26 0-4.3-.3-19-4-25.8l-.2-.3zm-6.1 26.1c0 8-1.2 15-3.3 19.7-3 2.6-7.5 4-13.2 4-3.1 0-10.6-.4-13.4-4.1-2.8-3.7-3.1-12.9-3.1-19.6 0-8 1.2-15 3.3-19.7 3-2.6 7.5-4 13.2-4 3.1 0 10.6.4 13.4 4.1 2.8 3.7 3.1 12.9 3.1 19.6zM986.8 348.4c3.2-3.6 5-9 5-15.6 0-6.7-1.2-10.9-2.2-13.2l-.2-.3c-1.8-1.8-7.2-6-20.2-6-6.2 0-12.2.7-17.4 2l-1 .3v64.1h10.3v-26c1.9.2 4.2.3 5.6.3h2l17.9 25.6.1.2h13.8L980 352.2c3.1-1 5.4-2.3 6.8-3.8zm-25.9-25c1.6-.1 4.5-.3 8.1-.3 4.6 0 8.2.9 10.1 2.6 1.4 1.3 2.3 3.9 2.3 7.1 0 3.2-.8 7.6-2 9-2 1.4-7 2.1-11.1 2.1-3.3 0-5.9-.2-7.5-.3v-20.2zM1021 314h-5.2l-5.1 1.5v64h37.7V370l-27.4-.4zM1106 321l-.2-.3c-5.1-5.1-12.9-7.5-24.5-7.5-6.4 0-14.6.7-20.4 1.7l-1.1.2v63.8l1.2.2c5.6.9 11.5 1.3 18.6 1.3 11.5 0 19.8-2.6 24-7.6 3.9-4.5 6.3-14.7 6.3-26 .1-6.9-.4-19.5-3.9-25.8zm-6.3 25.8c0 8.4-1.1 14.8-3.3 19.7-3 2.5-8.7 4-15.8 4-5 0-8.6-.4-10.5-.6v-46.1c1.9-.2 6.2-.7 11.2-.7 8 0 13.1 1.4 15.2 4.1 2.8 3.6 3.2 11.5 3.2 19.6z"/></g><g fill="#4D4D4D"><path d="M474.2 21c3.4-.8 7.4-1.3 11.5-1.3 7.8 0 11.8 2 13.5 3.8.8 1.8 1.4 4.6 1.4 8.9 0 4.2-.9 7.8-3.1 10.3-2.3 2.5-8 3.3-12.8 3.3-3 0-4.1-.1-5.4-.2v16.7h-5.1V21zm5.1 3.8v16.1c1.3.2 3.3.3 6 .3 2.6 0 6.9-.7 8.6-1.9 1.2-1.3 1.7-4.2 1.7-6.9 0-2.8-.6-4.8-1.9-5.9-1.4-1.2-3.9-2-8-2-3.9 0-6.4.3-6.4.3zM518.1 63.1c-8.5 0-11-3.9-11-3.9s-1.2-2.2-1.2-10.1c0-3.9.7-8.7 2.5-11.3 1.9-2.5 5.5-3.9 9.7-3.9 8.5 0 11.1 3.9 11.1 3.9s1.2 2.2 1.2 10.1c0 3.9-.7 8.7-2.5 11.3-2 2.5-5.6 3.9-9.8 3.9zm-7.5-14.7c0 4.1.5 6.6 1.6 8.1 1.2 1.5 3 2 5.9 2 2.5 0 4.3-.5 6.1-1.6.8-2.1 1.4-5.4 1.4-8.6 0-4.1-.5-6.6-1.6-8.1-1.2-1.5-3-2-5.9-2-2.5 0-4.3.5-6.1 1.6-.9 2.2-1.4 5.5-1.4 8.6zM535.1 34.9l1.9-.6h2.9l5.6 23.9 7.5-23.9h4.9l7.3 23.9 5.9-23.9h4.8l-7.5 28.2h-6.9l-4.1-14.7-2-8-2.1 7.9-4.5 14.7h-6.7l-7-27.5zM582.9 37.6c1.9-2.5 5.5-3.8 9.7-3.8 4.5 0 7.6 1.3 9.7 3.9.8 1.7 1.2 5.6 1.2 10.5L603 50l-18 .3c.1 3 .8 5 1.8 6.3 1.2 1.5 2.9 2 5.7 2 .7 0 1.7-.1 1.7-.1l7.3-1.9 1.4 3c-2.5 2.2-5.7 3.5-10.4 3.5-4.8 0-8.8-1.4-10.8-3.9-1.1-2.9-1.4-7.3-1.4-9.8 0-4.3.8-9.2 2.6-11.8zm16.1 8.1c-.1-2.5-.4-4.2-1.3-5.4-1.2-1.5-2.9-2-5.2-2-2.5 0-4.6.6-5.9 1.6-.9 1.4-1.5 3.9-1.6 6.4l14-.6zM628.3 37.7l-.6 1.4c-1.3-.2-2.6-.3-3.5-.3-3.5 0-6.6 1.6-8 3.7v20h-4.8V45.1l-.6-10.1 1.9-.6h2.9l.3 3.9c1.7-1.7 3.4-3.2 5-3.9 0 0 1.5-.6 3.8-.6 1.3 0 2.6.2 3.5.5v3.4zM635.2 37.6c1.9-2.5 5.5-3.8 9.7-3.8 4.5 0 7.6 1.3 9.7 3.9.8 1.7 1.2 5.6 1.2 10.5l-.6 1.7-18 .3c.1 3 .8 5 1.8 6.3 1.2 1.5 2.9 2 5.7 2 .7 0 1.7-.1 1.7-.1l7.3-1.9 1.4 3c-2.5 2.2-5.7 3.5-10.4 3.5-4.8 0-8.8-1.4-10.8-3.9-1.1-2.9-1.4-7.3-1.4-9.8.1-4.2.9-9.1 2.7-11.7zm16.1 8.1c-.1-2.5-.4-4.2-1.3-5.4-1.2-1.5-2.9-2-5.2-2-2.5 0-4.6.6-5.9 1.6-.9 1.4-1.5 3.9-1.6 6.4l14-.6zM683.5 20.3h2.9v34.4l1.7 7.3-1.9.6H683l-1-4.5-.5.5c-1.7 1.7-3.7 3.2-5.2 3.9 0 0-1.5.6-3.8.6-4.2 0-7-1.6-8.7-3.9 0 0-1.2-2.2-1.2-10.1 0-3.9.7-8.7 2.5-11.3 1.9-2.5 5-3.9 9.2-3.9 2.8 0 5.2.8 7.2 1.9v-15l2-.5zM682 55.1V46c0-3-.4-4.7-1.1-5.6-1.2-1.6-3-2-5.9-2-2.5 0-4.3.5-6.1 1.6-.8 2.1-1.4 5.4-1.4 8.6 0 4.1.5 6.6 1.6 8.1 1.2 1.5 2.6 2 4.7 2 3.5-.1 6.7-2 8.2-3.6zM720.4 34.3s1.5-.6 3.8-.6c4.2 0 7 1.6 8.7 3.9 0 0 1.2 2.2 1.2 10.1 0 3.9-.7 8.7-2.5 11.3-1.9 2.5-5.5 3.9-9.8 3.9-9 0-11.5-3.9-11.5-3.9V20.8l1.9-.6h2.9v18c1.8-1.6 3.8-3.1 5.3-3.9zm-5.5 7.5v7.8c0 3.4.3 6 1.1 6.9 1.3 1.5 3 2 5.9 2 2.5 0 4.3-.5 6.1-1.6.8-2.1 1.4-5.4 1.4-8.6 0-4.1-.5-6.6-1.6-8.1-1.2-1.5-2.6-2-4.7-2-3.6.1-7 2-8.2 3.6zM738.9 34.8l1.9-.6h3.3l8.1 26.1h.2l.9-4.1 7-21.9h4.7l-7.8 24.5c-2.7 8.5-4.6 11.2-7 13.5-1.5 1.5-4.1 2.9-6.4 2.9l-1.2-3.9 2.9-1.4c2.1-1 3.8-3 5.7-7.4h-3.4l-8.9-27.7z"/></g></svg>