<?xml version="1.0" encoding="utf-8"?>
<!-- Generator: Adobe Illustrator 20.1.0, SVG Export Plug-In . SVG Version: 6.00 Build 0)  -->
<svg version="1.1" id="Layer_1" xmlns="http://www.w3.org/2000/svg" xmlns:xlink="http://www.w3.org/1999/xlink" x="0px" y="0px"
	 width="20px" height="20px" viewBox="0 0 20 20" enable-background="new 0 0 20 20" xml:space="preserve">
	<g id="heart_filled" fill="#EB5B3E">
<path d="M9.5,19c-0.084,0-0.167-0.021-0.243-0.062c-0.094-0.053-2.326-1.302-4.592-3.348c-1.341-1.21-2.411-2.447-3.183-3.68
	C0.498,10.339,0,8.771,0,7.25C0,4.355,2.355,2,5.25,2c0.98,0,2.021,0.367,2.931,1.034c0.532,0.39,0.985,0.86,1.319,1.359
	c0.334-0.499,0.787-0.969,1.318-1.359C11.729,2.367,12.769,2,13.75,2C16.645,2,19,4.355,19,7.25c0,1.521-0.499,3.089-1.482,4.66
	c-0.77,1.232-1.842,2.47-3.182,3.68c-2.266,2.046-4.498,3.295-4.592,3.348C9.668,18.979,9.585,19,9.501,19H9.5z"/>
	</g>
</svg>

