<?xml version="1.0" encoding="utf-8"?>
<!-- Generator: Adobe Illustrator 19.1.0, SVG Export Plug-In . SVG Version: 6.00 Build 0)  -->
<svg version="1.1" id="Layer_1" xmlns="http://www.w3.org/2000/svg" xmlns:xlink="http://www.w3.org/1999/xlink" x="0px" y="0px"
	 width="500px" height="500px" viewBox="0 0 500 500" enable-background="new 0 0 500 500" xml:space="preserve">
<g>
	<path fill="#333333" d="M464.2,121.3L464.2,121.3c-25.8-42.7-64-77.2-109.5-98.3l0,0c-2.3-1.1-4.7-2.1-7-3.1l0,0l0,0
		C317.7,7.1,284.7,0,250,0c-32.1,0-62.8,6.1-91.1,17.2l0,0c-49.1,19.3-90.7,53.7-119,97.5l0,0C14.7,153.7,0,200.2,0,250
		c0,12.4,0.9,24.7,2.7,36.6l0,0C20.5,407.2,124.6,500,250,500c85.9,0,161.8-43.5,206.8-109.7l0,0c1.4-2.1,2.8-4.3,4.2-6.4l0,0
		c18.4-28.9,31.1-61.9,36.3-97.2l0,0c1.8-12,2.7-24.2,2.7-36.6C500,203,486.9,158.9,464.2,121.3z M459,127.1c2.4,4,4.6,8.1,6.8,12.3
		C463.7,135.2,461.4,131.1,459,127.1C459,127.1,459,127.1,459,127.1z M458.4,137.4c0,22.5-10.6,42.5-27.1,55.3
		c-3.3-10.4-7.4-20.3-12.3-29.9l0,0c14-10.3,26.9-21.9,38.8-34.5C458.2,131.3,458.4,134.3,458.4,137.4z M430.3,279.7L430.3,279.7
		c-0.4,2.4-0.9,4.8-1.4,7.2c-3.8,18.6-10.5,36.1-19.5,52.2c-15.7-10.6-32.4-19.7-50.1-27.1c19.3-16.8,31.6-41.5,31.6-69.1
		c0-5.6-0.5-11-1.5-16.3c4.4-2.9,9.7-4.6,15.3-4.6c15.1,0,27.3,12,27.9,26.9v0c0,0.3,0,0.7,0,1C432.7,260.1,431.9,270.1,430.3,279.7
		z M322.4,373.3c9.7-8.4,15.8-20.8,15.8-34.6c0-4.1-0.6-8.2-1.6-12c5.7-2.5,11.1-5.7,16.1-9.3c18.8,7.5,36.5,17,53,28.2
		c-13.9,22.5-32.5,41.8-54.4,56.5c-2.2,1.5-4.4,2.9-6.6,4.3c-5.9,3.6-12.1,6.9-18.4,9.8c0.9-4.8,1.5-9.7,1.5-14.8
		C327.6,391.4,325.8,382,322.4,373.3z M173.8,416.1c-6.3-2.9-12.5-6.2-18.4-9.8c-2.2-1.4-4.5-2.8-6.6-4.3
		c-22-14.7-40.6-34-54.5-56.5c16.5-11.2,34.2-20.7,53-28.2h0c5,3.6,10.4,6.8,16.1,9.3c-1,3.8-1.6,7.8-1.6,12
		c0,13.8,6.1,26.2,15.8,34.6c-3.4,8.7-5.3,18.1-5.3,28C172.4,406.3,172.9,411.3,173.8,416.1z M71,287c-0.5-2.4-1-4.8-1.4-7.2l0,0
		l0,0c-1.6-9.7-2.4-19.6-2.4-29.7h0c0-15.4,12.5-27.9,27.9-27.9c5.7,0,10.9,1.7,15.3,4.6l0,0c-1,5.3-1.5,10.7-1.5,16.3
		c0,27.6,12.3,52.3,31.6,69.1c-17.7,7.4-34.4,16.5-50.1,27.1C81.5,323.1,74.9,305.5,71,287z M84.6,156.3c-14-10.4-27-22.1-38.8-34.9
		c12.3-10.7,28.3-17.1,45.9-17.1c10.4,0,20.2,2.3,29.1,6.4C106.5,123.8,94.3,139.2,84.6,156.3L84.6,156.3z M87.8,166.1
		c0.9-1.7,1.7-3.3,2.7-4.9c9.8-17.6,22.5-33.5,37.4-46.9l0,0c0.4-0.3,0.7-0.7,1.1-1c37.1,20.5,65.8,54.2,79.8,94.7
		c-1.5-0.2-3-0.5-4.6-0.8c-2.6-0.4-5.2-0.9-7.8-1.4c-14.2-2.8-28-6.6-41.3-11.5c-2.5-0.9-4.9-1.9-7.4-2.8c-3.4-1.3-6.8-2.7-10.1-4.2
		l0,0c-2.2-1-4.4-2-6.6-3.1c-0.1-0.1-0.3-0.1-0.4-0.2l0,0c-1.6,1.9-3.2,4-4.7,6l0,0c-6.1,8.7-10.8,18.4-13.6,28.9
		c-5.1-2.8-10.9-4.4-17.1-4.4c-10.5,0-19.9,4.6-26.4,11.9c1-7.9,2.6-15.6,4.6-23.2c0.4-1.3,0.7-2.7,1.1-4
		C77.9,187.7,82.3,176.6,87.8,166.1z M171.2,85.2c2.2-1.1,4.5-2.1,6.8-3.1l0,0c22.1-9.5,46.4-14.8,72-14.8
		c27.9,0,54.3,6.3,77.9,17.5l0,0c2.3,1.1,4.5,2.2,6.7,3.3l0,0c10.8,5.7,21,12.4,30.5,20.1c0,0,0,0,0.1,0.1
		c-40.8,23.4-71.7,62.3-84.4,108.7l0,0c-4.1,15-6.3,30.9-6.3,47.2c0,9.3,0.8,18.5,2.1,27.4c0.2,1.6,0.5,3.2,0.8,4.8v0
		c0.4,2.1,0.9,4.3,1.3,6.4l0,0c0.1,0.6,0.3,1.1,0.4,1.7l0,0c0.5-0.5,1-0.9,1.6-1.3c0.3-0.2,0.6-0.4,0.9-0.5c0.3-0.2,0.7-0.4,1-0.6
		c0.4-0.2,0.7-0.3,1.1-0.5c0.3-0.1,0.6-0.2,1-0.3c0.4-0.1,0.8-0.2,1.2-0.3c0.8-0.1,1.5-0.2,2.3-0.2c7.2,0,13,5.8,13,13
		c0,0.8-0.1,1.6-0.2,2.4c0,0.2-0.1,0.4-0.2,0.7c-0.1,0.6-0.3,1.1-0.5,1.6c-0.1,0.2-0.2,0.4-0.2,0.6c-0.3,0.7-0.7,1.4-1.1,2
		c0,0,0,0,0,0c-0.4,0.6-0.9,1.2-1.4,1.7c-0.2,0.2-0.3,0.3-0.5,0.5c-0.4,0.4-0.8,0.7-1.3,1c-0.2,0.1-0.4,0.3-0.6,0.4
		c-0.6,0.4-1.3,0.8-2,1.1l0,0c-1.6,0.7-3.3,1-5.1,1c-0.9,0-1.7-0.1-2.5-0.3c-0.8-0.2-1.6-0.4-2.3-0.7l0,0c-3.6-2.1-7.8-3.2-12.2-3.2
		c-0.4,0-0.9,0.1-1.3,0.1c-5.6,0.3-10.6,2.4-14.6,5.8c0,0,0-0.1,0-0.1c-0.8,0.7-1.5,1.5-2.3,2.2c0,0,0,0,0-0.1
		c-0.1,0.1-0.2,0.2-0.3,0.3c-0.2,0.2-0.4,0.5-0.6,0.7c-0.7,0.9-1.4,1.8-2,2.8c0,0,0,0,0,0c-0.6-1-1.3-1.9-2.1-2.8
		c-0.2-0.2-0.4-0.4-0.5-0.6c-0.1-0.1-0.2-0.3-0.3-0.4c0,0,0,0,0,0.1c-0.7-0.8-1.4-1.6-2.3-2.2c0,0,0,0,0,0c-4-3.4-9.1-5.5-14.6-5.8
		l0,0c-0.4,0.9-0.9,1.8-1.5,2.6c0.6-0.8,1.1-1.7,1.5-2.6c-0.4,0-0.8-0.1-1.3-0.1c-3.7,0-7.3,0.9-10.5,2.4c0,0-0.1,0.1-0.1,0.1
		c-0.5,0.3-1,0.5-1.5,0.7c-0.8,0.3-1.6,0.6-2.4,0.7c-0.9,0.2-1.7,0.3-2.6,0.3c-1.8,0-3.5-0.4-5.1-1c-4.7-2-7.9-6.6-7.9-12
		c0-7.2,5.8-13,13-13c0.8,0,1.6,0.1,2.3,0.2c1.4,0.3,2.8,0.7,4,1.4c1,0.6,2,1.3,2.8,2.1c0.1-0.6,0.3-1.1,0.4-1.7
		c0.5-2.1,0.9-4.3,1.3-6.4c1.9-10.5,2.9-21.2,2.9-32.2c0-16.3-2.2-32.1-6.3-47.2l0,0c-12.7-46.4-43.5-85.3-84.3-108.7
		C146,99.1,158.2,91.4,171.2,85.2z M379.2,110.6L379.2,110.6c8.9-4.1,18.8-6.4,29.2-6.4c17.5,0,33.5,6.5,45.8,17.1
		c-11.8,12.8-24.8,24.5-38.8,35C405.7,139.3,393.4,123.9,379.2,110.6z M371.1,113.3c0.4,0.3,0.7,0.7,1.1,1
		c14.8,13.3,27.4,29,37.2,46.4c0,0,0,0,0,0l0,0l0,0c0.5,0.9,1,1.9,1.5,2.8c6.1,11.2,11,23.2,14.6,35.6c0.3,1.1,0.6,2.2,0.9,3.3
		c2.1,7.8,3.7,15.8,4.8,23.9c-6.5-7.2-15.9-11.8-26.3-11.8c-6.2,0-12,1.6-17.1,4.4c-2.9-10.5-7.5-20.3-13.7-28.9l0,0
		c-1.5-2.1-3-4.1-4.7-6l0,0c-2.3,1.1-4.7,2.2-7,3.2c-3.3,1.5-6.7,2.9-10.1,4.2c-2.4,1-4.9,1.9-7.4,2.8c-13.3,4.9-27.1,8.7-41.3,11.5
		c-2.6,0.5-5.2,1-7.8,1.4c-1.5,0.3-3,0.5-4.6,0.8C305.3,167.5,334,133.8,371.1,113.3z M328.5,325.9c0.4,1.2,0.8,2.4,1.1,3.6l0,0
		c0.7,2.9,1.2,6,1.2,9.2c0,10.2-4,19.4-10.5,26.3l0,0c-0.7,0.8-1.5,1.5-2.2,2.2c-0.3,0.2-0.5,0.5-0.8,0.7c-0.6,0.6-1.3,1.1-2,1.6
		c-0.3,0.2-0.7,0.5-1,0.7c-1.8,1.3-3.8,2.4-5.8,3.4c-4.9,2.3-10.4,3.6-16.2,3.6c-6.1,0-11.8-1.4-16.9-4c-0.8-0.4-1.5-0.8-2.3-1.2
		c-0.7-0.4-1.5-0.9-2.2-1.4c0,0,0,0,0,0c-0.7-0.5-1.4-1-2-1.5c-8.3-6.4-13.8-16-14.8-26.9c0.1,0.5,0.1,1,0.2,1.5
		c1.6-7.9,8.6-13.8,17-13.8c2.5,0,4.9,0.5,7,1.5c0.5,0.2,1.1,0.5,1.6,0.8c2.6,1.2,5.5,1.9,8.5,1.9c0.1,0,0.3,0,0.4,0l0,0
		c0.7,0,1.3-0.1,2-0.1c0.1,0,0.2,0,0.3,0c0.2,0,0.4-0.1,0.6-0.1h0c0.1,0,0.2,0,0.3,0l0,0c0.3,0,0.5-0.1,0.8-0.1c0,0,0.1,0,0.1,0
		c0.6-0.1,1.2-0.3,1.8-0.5c0,0,0.1,0,0.1,0c0.5-0.2,0.9-0.3,1.4-0.5c0.1,0,0.2-0.1,0.2-0.1c0.7-0.3,1.4-0.7,2.1-1.1
		c0.2-0.1,0.5-0.3,0.7-0.4c0.6-0.4,1.1-0.7,1.6-1.1c0.2-0.1,0.4-0.3,0.5-0.4c0.6-0.5,1.2-1.1,1.8-1.7c0.2-0.2,0.3-0.4,0.5-0.5
		c0.5-0.6,0.9-1.1,1.4-1.7c0.1-0.1,0.2-0.2,0.3-0.3c0.5-0.7,0.9-1.5,1.3-2.2c0.1-0.2,0.2-0.4,0.3-0.6c0.3-0.7,0.7-1.5,0.9-2.3
		c0-0.1,0.1-0.1,0.1-0.2c0.3-0.8,0.5-1.7,0.6-2.6c0-0.2,0.1-0.4,0.1-0.7c0.1-0.9,0.2-1.8,0.2-2.8c0-3.7-1.1-7.2-2.8-10.2
		c-0.2-0.3-0.3-0.6-0.5-0.8c-3.6-5.6-10-9.4-17.2-9.4c-1.3,0-2.5,0.1-3.8,0.4c-0.1-0.4-0.1-0.8-0.2-1.2c-1.5-9.2-2.4-18.6-2.4-28.2
		c0-16.7,2.4-32.9,6.9-48.2c2.3-0.3,4.7-0.7,7-1.1c1.8,15.9,15.3,28.3,31.7,28.3c17.6,0,31.9-14.3,31.9-31.9c0-4.8-1.1-9.3-3-13.3
		c3.7-1.5,7.3-3,10.9-4.6c6.6,8.9,11.4,19.2,14,30.4c0.3,1.5,0.6,2.9,0.9,4.4c0,0.1,0,0.2,0,0.3c0.3,1.5,0.5,2.9,0.7,4.4
		c0.4,3.3,0.6,6.7,0.6,10.2c0,26.7-12.6,50.5-32,66c-1.1,0.9-2.2,1.7-3.4,2.5c-0.1,0.1-0.3,0.2-0.4,0.3c-0.3,0.2-0.6,0.4-0.9,0.6
		c-0.9,0.6-1.8,1.2-2.7,1.8c-3.2,2-6.6,3.9-10.1,5.5c-1.1,0.5-2.2,1-3.4,1.5c0,0-0.1,0-0.1,0c-1.1,0.5-2.3,0.9-3.4,1.3
		C327.6,323.6,328.1,324.7,328.5,325.9z M169.5,321.2L169.5,321.2c-1.1-0.5-2.3-0.9-3.4-1.5c0,0,0,0-0.1,0l0,0l0,0
		c-3.5-1.6-6.9-3.5-10.2-5.5c-0.8-0.5-1.7-1.1-2.5-1.7c-0.2-0.1-0.3-0.2-0.5-0.3c-0.3-0.2-0.7-0.4-1-0.7c-1.1-0.8-2.2-1.7-3.3-2.5
		c-19.5-15.4-32-39.2-32-66c0-18.6,6-35.7,16.2-49.6c3.6,1.6,7.3,3.2,10.9,4.6c-1.9,4.1-3,8.6-3,13.3c0,17.6,14.3,31.9,31.9,31.9
		c16.4,0,29.9-12.4,31.7-28.3c2.3,0.4,4.6,0.8,7,1.1c4.5,15.3,6.9,31.4,6.9,48.2c0,10-0.9,19.9-2.5,29.5c-1.2-0.2-2.5-0.4-3.8-0.4
		c-7.2,0-13.5,3.7-17.2,9.4c-2.1,3.2-3.3,7-3.3,11.1c0,8.5,5.2,15.7,12.6,18.8c1.3,0.6,2.7,1,4.1,1.3c1.1,0.2,2.2,0.3,3.3,0.3
		c0.1,0,0.3,0,0.4,0c3.6,0,7.1-0.9,10.1-2.7c0.1-0.1,0.2-0.2,0.3-0.2c-0.1,0-0.2,0.1-0.2,0.2c2.1-0.9,4.4-1.4,6.8-1.4
		c8.4,0,15.4,5.9,17,13.8c0.1-0.5,0.1-1,0.2-1.5c-1,10.9-6.6,20.6-14.8,26.9c-0.7,0.5-1.3,1-2,1.5l0,0c0,0,0,0,0,0
		c-0.7,0.5-1.4,0.9-2.2,1.4c-0.7,0.4-1.5,0.8-2.3,1.2l0,0c-5.1,2.5-10.8,4-16.9,4c-5.8,0-11.3-1.3-16.2-3.6l0,0
		c-2.1-1-4-2.1-5.8-3.4c-0.3-0.2-0.7-0.5-1-0.7c-0.7-0.5-1.4-1-2-1.6c-0.3-0.2-0.5-0.5-0.8-0.7c-0.8-0.7-1.5-1.4-2.2-2.2
		c-6.5-6.9-10.5-16.1-10.5-26.3c0-3.2,0.4-6.2,1.2-9.2l0,0c0.3-1.2,0.6-2.4,1.1-3.6c0.4-1.2,0.9-2.3,1.4-3.4
		C171.8,322,170.6,321.6,169.5,321.2z M148.2,211.3c0-3.8,0.9-7.4,2.5-10.6c14.9,5.5,30.3,9.9,46.3,12.9
		c-1.1,12.4-11.6,22.2-24.3,22.2C159.2,235.7,148.2,224.8,148.2,211.3z M250,376.5c-4.5,0-8.7-1.1-12.4-2.9c2.3-2,4.4-4.1,6.3-6.5
		c2-2.6,3.8-5.4,5.2-8.3c0.3-0.7,0.6-1.4,0.9-2.1c0.3,0.7,0.6,1.4,0.9,2.1c1.5,3,3.2,5.8,5.3,8.4c1.9,2.3,3.9,4.5,6.2,6.4
		C258.7,375.4,254.5,376.5,250,376.5z M269.1,378.3c6.8,4,14.7,6.3,23.2,6.3c3.2,0,6.3-0.3,9.3-1c-12.2,14.9-30.8,24.5-51.6,24.5
		c-20.8,0-39.3-9.5-51.6-24.5v0c3,0.6,6.1,1,9.3,1c8.5,0,16.4-2.3,23.2-6.3c5.5,3.5,12,5.6,19.1,5.6
		C257,383.9,263.6,381.8,269.1,378.3z M183.9,377.8c0.8,0.5,1.6,1,2.4,1.4c12.9,21.7,36.6,36.3,63.7,36.3
		c27.1,0,50.8-14.6,63.7-36.3v0c0.8-0.4,1.6-0.9,2.4-1.4c2.6,7.3,4,15.2,4,23.5c0,6.4-0.9,12.6-2.5,18.5c-20.9,8.4-43.8,13-67.7,13
		c-23.9,0-46.7-4.6-67.6-13c-1.6-5.9-2.5-12.1-2.5-18.5C179.9,393.1,181.3,385.2,183.9,377.8z M254.1,333.4L254.1,333.4
		c0.1-0.8,0.3-1.5,0.4-2.3c0,0,0,0,0,0l0,0C254.4,331.8,254.2,332.6,254.1,333.4z M254.9,329.5L254.9,329.5c0.1-0.3,0.1-0.6,0.2-0.8
		l0,0C255,328.9,255,329.2,254.9,329.5z M303.1,213.5L303.1,213.5c15.9-3,31.4-7.3,46.3-12.9c1.6,3.2,2.5,6.8,2.5,10.6
		c0,13.5-11,24.4-24.4,24.4C314.7,235.7,304.2,226,303.1,213.5z M250,440.2c22.7,0,44.4-4,64.5-11.3c-10.7,25-35.6,42.6-64.5,42.6
		c-28.9,0-53.7-17.6-64.5-42.6C205.7,436.2,227.4,440.2,250,440.2z M431.2,226.7c0.4,3,0.7,6,0.9,9
		C431.9,232.7,431.6,229.7,431.2,226.7z M454.9,120.5c-3.1-4.9-6.3-9.7-9.8-14.4C448.6,110.8,451.9,115.6,454.9,120.5
		C455,120.5,455,120.5,454.9,120.5z M353.3,30.6c36.5,17.2,68,43.3,91.8,75.4c-10.9-5.9-23.4-9.2-36.7-9.2
		c-12.7,0-24.6,3.1-35.2,8.5c-0.3-0.3-0.7-0.6-1-0.9l0,0c-10.6-8.9-22.2-16.6-34.5-23.1v0C344.3,65,349.6,48.1,353.3,30.6z M250,7.4
		c34.2,0,66.8,7.1,96.3,20c-3.6,17.5-8.8,34.4-15.4,50.5c-24.6-11.6-52-18.1-80.9-18.1c-26.6,0-51.9,5.5-74.9,15.4v0
		c-6.5-16.2-11.5-33.1-14.9-50.5C188,13.6,218.3,7.4,250,7.4z M153.2,27.6c3.5,17.5,8.6,34.5,15.1,50.7c-14.6,7-28.2,15.7-40.4,26
		c0,0,0,0,0,0c-0.4,0.3-0.7,0.6-1.1,0.9c-10.6-5.4-22.5-8.5-35.1-8.5c-13.3,0-25.8,3.4-36.8,9.3C80.1,72,114,44.8,153.2,27.6z
		 M53.7,107.8c-3,4.2-5.9,8.4-8.6,12.7c0,0,0,0,0,0C47.8,116.1,50.7,111.9,53.7,107.8z M42.2,128.4C54.1,141,67,152.6,81,162.9l0,0
		c-4.9,9.5-9,19.5-12.3,29.8c-16.5-12.9-27.1-32.8-27.1-55.3C41.6,134.4,41.8,131.3,42.2,128.4z M41,127.1L41,127.1
		c-2.3,4-4.6,8.1-6.7,12.2C36.4,135.1,38.6,131.1,41,127.1z M7.4,250c0-39.9,9.7-77.5,26.8-110.7c0.6,25.1,13.2,47.2,32.2,61
		c-4.3,15.9-6.6,32.5-6.6,49.7c0,10.4,0.8,20.5,2.4,30.5l0,0c-7.7,0.6-15.5,1-23.3,1c-10,0-19.9-0.6-29.6-1.6
		C8.1,270.1,7.4,260.1,7.4,250z M10.3,287.5c9.4,0.9,18.9,1.4,28.6,1.4c8.3,0,16.5-0.4,24.7-1.1c4,19.8,11.1,38.5,20.8,55.6
		c-14.5,10.4-27.9,22-40.2,34.8C27.2,351.1,15.5,320.4,10.3,287.5z M250,492.6c-83.9,0-158.1-42.9-201.6-107.9
		c12.1-12.8,25.5-24.5,39.8-34.8l0,0c13.9,22.5,32.4,41.8,54.1,56.8l0,0c2.2,1.5,4.4,3,6.7,4.4l0,0c8.6,5.4,17.7,10.2,27.2,14.2
		c10.1,31.1,39.4,53.7,73.8,53.7c34.4,0,63.7-22.6,73.8-53.7c9.5-4,18.5-8.7,27.1-14.2l0,0c2.3-1.4,4.5-2.9,6.7-4.4c0,0,0,0,0,0
		c21.7-15,40.2-34.3,54.1-56.8c14.4,10.3,27.7,22,39.9,34.8C408.1,449.7,334,492.6,250,492.6z M455.8,378.2
		c-12.3-12.8-25.8-24.5-40.2-34.8c0,0,0,0,0,0.1c9.7-17.1,16.8-35.8,20.8-55.6l0,0c8.2,0.7,16.4,1.1,24.7,1.1
		c9.6,0,19.1-0.5,28.5-1.4C484.5,320.4,472.8,351.1,455.8,378.2z M490.7,279.9c-9.7,1-19.6,1.6-29.6,1.6c-7.9,0-15.7-0.3-23.4-1l0,0
		c1.6-9.9,2.5-20.1,2.5-30.5c0,0.2,0,0.5,0,0.7c0-0.2,0-0.5,0-0.7c0-0.3,0-0.7-0.1-1c-0.1-16.8-2.4-33.1-6.6-48.7l0,0
		c19-13.8,31.6-35.9,32.2-61c17.1,33.2,26.7,70.8,26.7,110.6C492.6,260.1,491.9,270.1,490.7,279.9z"/>
</g>
</svg>
