<?xml version="1.0" encoding="utf-8"?>
<!-- Generator: Adobe Illustrator 19.1.0, SVG Export Plug-In . SVG Version: 6.00 Build 0)  -->
<svg version="1.1" id="Layer_1" xmlns="http://www.w3.org/2000/svg" xmlns:xlink="http://www.w3.org/1999/xlink" x="0px" y="0px"
	 width="50px" height="50px" viewBox="0 0 50 50" style="enable-background:new 0 0 50 50;" xml:space="preserve">
<style type="text/css">
	.st0{fill:#333333;}
</style>
<g>
	<path class="st0" d="M46.4,12.1L46.4,12.1c-2.6-4.3-6.4-7.7-11-9.8l0,0C35.2,2.2,35,2.1,34.8,2l0,0l0,0c-3-1.3-6.3-2-9.8-2
		c-3.2,0-6.3,0.6-9.1,1.7l0,0C11,3.6,6.8,7.1,4,11.5l0,0C1.5,15.4,0,20,0,25c0,1.2,0.1,2.5,0.3,3.7l0,0C2,40.7,12.5,50,25,50
		c8.6,0,16.2-4.4,20.7-11l0,0c0.1-0.2,0.3-0.4,0.4-0.6l0,0c1.8-2.9,3.1-6.2,3.6-9.7l0,0c0.2-1.2,0.3-2.4,0.3-3.7
		C50,20.3,48.7,15.9,46.4,12.1z M45.9,12.7c0.2,0.4,0.5,0.8,0.7,1.2C46.4,13.5,46.1,13.1,45.9,12.7C45.9,12.7,45.9,12.7,45.9,12.7z
		 M45.8,13.7c0,2.2-1.1,4.2-2.7,5.5c-0.3-1-0.7-2-1.2-3l0,0c1.4-1,2.7-2.2,3.9-3.5C45.8,13.1,45.8,13.4,45.8,13.7z M43,28L43,28
		c0,0.2-0.1,0.5-0.1,0.7c-0.4,1.9-1,3.6-2,5.2c-1.6-1.1-3.2-2-5-2.7c1.9-1.7,3.2-4.2,3.2-6.9c0-0.6-0.1-1.1-0.1-1.6
		c0.4-0.3,1-0.5,1.5-0.5c1.5,0,2.7,1.2,2.8,2.7v0c0,0,0,0.1,0,0.1C43.3,26,43.2,27,43,28z M32.2,37.3c1-0.8,1.6-2.1,1.6-3.5
		c0-0.4-0.1-0.8-0.2-1.2c0.6-0.3,1.1-0.6,1.6-0.9c1.9,0.7,3.7,1.7,5.3,2.8c-1.4,2.3-3.2,4.2-5.4,5.6c-0.2,0.1-0.4,0.3-0.7,0.4
		c-0.6,0.4-1.2,0.7-1.8,1c0.1-0.5,0.1-1,0.1-1.5C32.8,39.1,32.6,38.2,32.2,37.3z M17.4,41.6c-0.6-0.3-1.2-0.6-1.8-1
		c-0.2-0.1-0.4-0.3-0.7-0.4c-2.2-1.5-4.1-3.4-5.4-5.6c1.6-1.1,3.4-2.1,5.3-2.8h0c0.5,0.4,1,0.7,1.6,0.9c-0.1,0.4-0.2,0.8-0.2,1.2
		c0,1.4,0.6,2.6,1.6,3.5c-0.3,0.9-0.5,1.8-0.5,2.8C17.2,40.6,17.3,41.1,17.4,41.6z M7.1,28.7C7.1,28.5,7,28.2,7,28l0,0c0,0,0,0,0,0
		c-0.2-1-0.2-2-0.2-3h0c0-1.5,1.3-2.8,2.8-2.8c0.6,0,1.1,0.2,1.5,0.5l0,0c-0.1,0.5-0.1,1.1-0.1,1.6c0,2.8,1.2,5.2,3.2,6.9
		c-1.8,0.7-3.4,1.6-5,2.7C8.2,32.3,7.5,30.6,7.1,28.7z M8.5,15.6c-1.4-1-2.7-2.2-3.9-3.5c1.2-1.1,2.8-1.7,4.6-1.7c1,0,2,0.2,2.9,0.6
		C10.7,12.4,9.4,13.9,8.5,15.6L8.5,15.6z M8.8,16.6C8.9,16.4,9,16.3,9,16.1c1-1.8,2.3-3.3,3.7-4.7l0,0c0,0,0.1-0.1,0.1-0.1
		c3.7,2,6.6,5.4,8,9.5c-0.2,0-0.3-0.1-0.5-0.1c-0.3,0-0.5-0.1-0.8-0.1c-1.4-0.3-2.8-0.7-4.1-1.1c-0.2-0.1-0.5-0.2-0.7-0.3
		c-0.3-0.1-0.7-0.3-1-0.4l0,0c-0.2-0.1-0.4-0.2-0.7-0.3c0,0,0,0,0,0l0,0c-0.2,0.2-0.3,0.4-0.5,0.6l0,0c-0.6,0.9-1.1,1.8-1.4,2.9
		c-0.5-0.3-1.1-0.4-1.7-0.4c-1,0-2,0.5-2.6,1.2c0.1-0.8,0.3-1.6,0.5-2.3c0-0.1,0.1-0.3,0.1-0.4C7.8,18.8,8.2,17.7,8.8,16.6z
		 M17.1,8.5c0.2-0.1,0.4-0.2,0.7-0.3l0,0c2.2-1,4.6-1.5,7.2-1.5c2.8,0,5.4,0.6,7.8,1.8l0,0c0.2,0.1,0.4,0.2,0.7,0.3l0,0
		c1.1,0.6,2.1,1.2,3,2c0,0,0,0,0,0c-4.1,2.3-7.2,6.2-8.4,10.9l0,0c-0.4,1.5-0.6,3.1-0.6,4.7c0,0.9,0.1,1.8,0.2,2.7
		c0,0.2,0,0.3,0.1,0.5v0c0,0.2,0.1,0.4,0.1,0.6l0,0c0,0.1,0,0.1,0,0.2l0,0c0,0,0.1-0.1,0.2-0.1c0,0,0.1,0,0.1-0.1c0,0,0.1,0,0.1-0.1
		c0,0,0.1,0,0.1,0c0,0,0.1,0,0.1,0c0,0,0.1,0,0.1,0c0.1,0,0.2,0,0.2,0c0.7,0,1.3,0.6,1.3,1.3c0,0.1,0,0.2,0,0.2c0,0,0,0,0,0.1
		c0,0.1,0,0.1-0.1,0.2c0,0,0,0,0,0.1c0,0.1-0.1,0.1-0.1,0.2c0,0,0,0,0,0c0,0.1-0.1,0.1-0.1,0.2c0,0,0,0-0.1,0c0,0-0.1,0.1-0.1,0.1
		c0,0,0,0-0.1,0c-0.1,0-0.1,0.1-0.2,0.1l0,0c-0.2,0.1-0.3,0.1-0.5,0.1c-0.1,0-0.2,0-0.3,0c-0.1,0-0.2,0-0.2-0.1l0,0
		c-0.4-0.2-0.8-0.3-1.2-0.3c0,0-0.1,0-0.1,0c-0.6,0-1.1,0.2-1.5,0.6c0,0,0,0,0,0c-0.1,0.1-0.2,0.1-0.2,0.2c0,0,0,0,0,0c0,0,0,0,0,0
		c0,0,0,0-0.1,0.1c-0.1,0.1-0.1,0.2-0.2,0.3c0,0,0,0,0,0c-0.1-0.1-0.1-0.2-0.2-0.3c0,0,0,0-0.1-0.1c0,0,0,0,0,0c0,0,0,0,0,0
		c-0.1-0.1-0.1-0.2-0.2-0.2c0,0,0,0,0,0c-0.4-0.3-0.9-0.5-1.5-0.6l0,0c0,0.1-0.1,0.2-0.2,0.3c0.1-0.1,0.1-0.2,0.2-0.3
		c0,0-0.1,0-0.1,0c-0.4,0-0.7,0.1-1,0.2c0,0,0,0,0,0c0,0-0.1,0.1-0.1,0.1c-0.1,0-0.2,0.1-0.2,0.1c-0.1,0-0.2,0-0.3,0
		c-0.2,0-0.3,0-0.5-0.1c-0.5-0.2-0.8-0.7-0.8-1.2c0-0.7,0.6-1.3,1.3-1.3c0.1,0,0.2,0,0.2,0c0.1,0,0.3,0.1,0.4,0.1
		c0.1,0.1,0.2,0.1,0.3,0.2c0-0.1,0-0.1,0-0.2c0-0.2,0.1-0.4,0.1-0.6c0.2-1,0.3-2.1,0.3-3.2c0-1.6-0.2-3.2-0.6-4.7l0,0
		c-1.3-4.6-4.3-8.5-8.4-10.9C14.6,9.9,15.8,9.1,17.1,8.5z M37.9,11.1L37.9,11.1c0.9-0.4,1.9-0.6,2.9-0.6c1.8,0,3.4,0.6,4.6,1.7
		c-1.2,1.3-2.5,2.5-3.9,3.5C40.6,13.9,39.3,12.4,37.9,11.1z M37.1,11.3c0,0,0.1,0.1,0.1,0.1c1.5,1.3,2.7,2.9,3.7,4.6c0,0,0,0,0,0
		l0,0l0,0c0.1,0.1,0.1,0.2,0.2,0.3c0.6,1.1,1.1,2.3,1.5,3.6c0,0.1,0.1,0.2,0.1,0.3c0.2,0.8,0.4,1.6,0.5,2.4
		c-0.6-0.7-1.6-1.2-2.6-1.2c-0.6,0-1.2,0.2-1.7,0.4c-0.3-1.1-0.8-2-1.4-2.9l0,0c-0.1-0.2-0.3-0.4-0.5-0.6l0,0
		c-0.2,0.1-0.5,0.2-0.7,0.3c-0.3,0.1-0.7,0.3-1,0.4c-0.2,0.1-0.5,0.2-0.7,0.3c-1.3,0.5-2.7,0.9-4.1,1.1c-0.3,0.1-0.5,0.1-0.8,0.1
		c-0.2,0-0.3,0.1-0.5,0.1C30.5,16.7,33.4,13.4,37.1,11.3z M32.9,32.6c0,0.1,0.1,0.2,0.1,0.4l0,0c0.1,0.3,0.1,0.6,0.1,0.9
		c0,1-0.4,1.9-1,2.6l0,0c-0.1,0.1-0.1,0.1-0.2,0.2c0,0-0.1,0-0.1,0.1c-0.1,0.1-0.1,0.1-0.2,0.2c0,0-0.1,0-0.1,0.1
		c-0.2,0.1-0.4,0.2-0.6,0.3c-0.5,0.2-1,0.4-1.6,0.4c-0.6,0-1.2-0.1-1.7-0.4c-0.1,0-0.2-0.1-0.2-0.1c-0.1,0-0.1-0.1-0.2-0.1
		c0,0,0,0,0,0c-0.1,0-0.1-0.1-0.2-0.1c-0.8-0.6-1.4-1.6-1.5-2.7c0,0,0,0.1,0,0.1c0.2-0.8,0.9-1.4,1.7-1.4c0.3,0,0.5,0.1,0.7,0.1
		c0.1,0,0.1,0.1,0.2,0.1c0.3,0.1,0.5,0.2,0.8,0.2c0,0,0,0,0,0l0,0c0.1,0,0.1,0,0.2,0c0,0,0,0,0,0c0,0,0,0,0.1,0h0c0,0,0,0,0,0l0,0
		c0,0,0.1,0,0.1,0c0,0,0,0,0,0c0.1,0,0.1,0,0.2,0c0,0,0,0,0,0c0,0,0.1,0,0.1-0.1c0,0,0,0,0,0c0.1,0,0.1-0.1,0.2-0.1c0,0,0,0,0.1,0
		C30,33,30,33,30.1,33c0,0,0,0,0.1,0c0.1-0.1,0.1-0.1,0.2-0.2c0,0,0,0,0-0.1c0-0.1,0.1-0.1,0.1-0.2c0,0,0,0,0,0
		c0-0.1,0.1-0.1,0.1-0.2c0,0,0,0,0-0.1c0-0.1,0.1-0.2,0.1-0.2c0,0,0,0,0,0c0-0.1,0-0.2,0.1-0.3c0,0,0,0,0-0.1c0-0.1,0-0.2,0-0.3
		c0-0.4-0.1-0.7-0.3-1c0,0,0-0.1,0-0.1c-0.4-0.6-1-0.9-1.7-0.9c-0.1,0-0.3,0-0.4,0c0,0,0-0.1,0-0.1c-0.2-0.9-0.2-1.9-0.2-2.8
		c0-1.7,0.2-3.3,0.7-4.8c0.2,0,0.5-0.1,0.7-0.1c0.2,1.6,1.5,2.8,3.2,2.8c1.8,0,3.2-1.4,3.2-3.2c0-0.5-0.1-0.9-0.3-1.3
		c0.4-0.1,0.7-0.3,1.1-0.5c0.7,0.9,1.1,1.9,1.4,3c0,0.1,0.1,0.3,0.1,0.4c0,0,0,0,0,0c0,0.1,0,0.3,0.1,0.4c0,0.3,0.1,0.7,0.1,1
		c0,2.7-1.3,5.1-3.2,6.6c-0.1,0.1-0.2,0.2-0.3,0.3c0,0,0,0,0,0c0,0-0.1,0-0.1,0.1c-0.1,0.1-0.2,0.1-0.3,0.2c-0.3,0.2-0.7,0.4-1,0.5
		c-0.1,0.1-0.2,0.1-0.3,0.1c0,0,0,0,0,0c-0.1,0-0.2,0.1-0.3,0.1C32.8,32.4,32.8,32.5,32.9,32.6z M16.9,32.1L16.9,32.1
		c-0.1,0-0.2-0.1-0.3-0.1c0,0,0,0,0,0l0,0c0,0,0,0,0,0c-0.4-0.2-0.7-0.3-1-0.6c-0.1-0.1-0.2-0.1-0.2-0.2c0,0,0,0,0,0
		c0,0-0.1,0-0.1-0.1c-0.1-0.1-0.2-0.2-0.3-0.3c-1.9-1.5-3.2-3.9-3.2-6.6c0-1.9,0.6-3.6,1.6-5c0.4,0.2,0.7,0.3,1.1,0.5
		c-0.2,0.4-0.3,0.9-0.3,1.3c0,1.8,1.4,3.2,3.2,3.2c1.6,0,3-1.2,3.2-2.8c0.2,0,0.5,0.1,0.7,0.1c0.4,1.5,0.7,3.1,0.7,4.8
		c0,1-0.1,2-0.3,2.9c-0.1,0-0.2,0-0.4,0c-0.7,0-1.4,0.4-1.7,0.9c-0.2,0.3-0.3,0.7-0.3,1.1c0,0.8,0.5,1.6,1.3,1.9
		c0.1,0.1,0.3,0.1,0.4,0.1c0.1,0,0.2,0,0.3,0c0,0,0,0,0,0c0.4,0,0.7-0.1,1-0.3c0,0,0,0,0,0c0,0,0,0,0,0c0.2-0.1,0.4-0.1,0.7-0.1
		c0.8,0,1.5,0.6,1.7,1.4c0,0,0-0.1,0-0.1c-0.1,1.1-0.7,2.1-1.5,2.7C23.1,37,23,37,22.9,37.1c0,0,0,0,0,0s0,0,0,0
		c-0.1,0-0.1,0.1-0.2,0.1c-0.1,0-0.2,0.1-0.2,0.1l0,0c-0.5,0.3-1.1,0.4-1.7,0.4c-0.6,0-1.1-0.1-1.6-0.4l0,0
		c-0.2-0.1-0.4-0.2-0.6-0.3c0,0-0.1,0-0.1-0.1c-0.1-0.1-0.1-0.1-0.2-0.2c0,0-0.1,0-0.1-0.1c-0.1-0.1-0.2-0.1-0.2-0.2
		c-0.6-0.7-1-1.6-1-2.6c0-0.3,0-0.6,0.1-0.9l0,0c0-0.1,0.1-0.2,0.1-0.4c0-0.1,0.1-0.2,0.1-0.3C17.2,32.2,17.1,32.2,16.9,32.1z
		 M14.8,21.1c0-0.4,0.1-0.7,0.2-1.1c1.5,0.6,3,1,4.6,1.3c-0.1,1.2-1.2,2.2-2.4,2.2C15.9,23.6,14.8,22.5,14.8,21.1z M25,37.6
		c-0.4,0-0.9-0.1-1.2-0.3c0.2-0.2,0.4-0.4,0.6-0.7c0.2-0.3,0.4-0.5,0.5-0.8c0-0.1,0.1-0.1,0.1-0.2c0,0.1,0.1,0.1,0.1,0.2
		c0.1,0.3,0.3,0.6,0.5,0.8c0.2,0.2,0.4,0.4,0.6,0.6C25.9,37.5,25.4,37.6,25,37.6z M26.9,37.8c0.7,0.4,1.5,0.6,2.3,0.6
		c0.3,0,0.6,0,0.9-0.1c-1.2,1.5-3.1,2.4-5.2,2.4c-2.1,0-3.9-1-5.2-2.4v0c0.3,0.1,0.6,0.1,0.9,0.1c0.8,0,1.6-0.2,2.3-0.6
		c0.6,0.4,1.2,0.6,1.9,0.6C25.7,38.4,26.4,38.2,26.9,37.8z M18.4,37.8c0.1,0,0.2,0.1,0.2,0.1c1.3,2.2,3.7,3.6,6.4,3.6
		c2.7,0,5.1-1.5,6.4-3.6v0c0.1,0,0.2-0.1,0.2-0.1c0.3,0.7,0.4,1.5,0.4,2.3c0,0.6-0.1,1.3-0.2,1.8c-2.1,0.8-4.4,1.3-6.8,1.3
		c-2.4,0-4.7-0.5-6.8-1.3c-0.2-0.6-0.2-1.2-0.2-1.8C18,39.3,18.1,38.5,18.4,37.8z M25.4,33.3L25.4,33.3c0-0.1,0-0.2,0-0.2
		c0,0,0,0,0,0l0,0C25.4,33.2,25.4,33.3,25.4,33.3z M25.5,33L25.5,33C25.5,32.9,25.5,32.9,25.5,33L25.5,33
		C25.5,32.9,25.5,32.9,25.5,33z M30.3,21.4L30.3,21.4c1.6-0.3,3.1-0.7,4.6-1.3c0.2,0.3,0.2,0.7,0.2,1.1c0,1.3-1.1,2.4-2.4,2.4
		C31.5,23.6,30.4,22.6,30.3,21.4z M25,44c2.3,0,4.4-0.4,6.5-1.1c-1.1,2.5-3.6,4.3-6.5,4.3c-2.9,0-5.4-1.8-6.4-4.3
		C20.6,43.6,22.7,44,25,44z M43.1,22.7c0,0.3,0.1,0.6,0.1,0.9C43.2,23.3,43.2,23,43.1,22.7z M45.5,12.1c-0.3-0.5-0.6-1-1-1.4
		C44.9,11.1,45.2,11.6,45.5,12.1C45.5,12,45.5,12,45.5,12.1z M35.3,3.1c3.6,1.7,6.8,4.3,9.2,7.5c-1.1-0.6-2.3-0.9-3.7-0.9
		c-1.3,0-2.5,0.3-3.5,0.8c0,0-0.1-0.1-0.1-0.1l0,0c-1.1-0.9-2.2-1.7-3.5-2.3v0C34.4,6.5,35,4.8,35.3,3.1z M25,0.7
		c3.4,0,6.7,0.7,9.6,2c-0.4,1.7-0.9,3.4-1.5,5.1C30.6,6.6,27.9,6,25,6c-2.7,0-5.2,0.6-7.5,1.5v0c-0.6-1.6-1.2-3.3-1.5-5.1
		C18.8,1.4,21.8,0.7,25,0.7z M15.3,2.8c0.3,1.8,0.9,3.4,1.5,5.1c-1.5,0.7-2.8,1.6-4,2.6c0,0,0,0,0,0c0,0-0.1,0.1-0.1,0.1
		c-1.1-0.5-2.2-0.8-3.5-0.8c-1.3,0-2.6,0.3-3.7,0.9C8,7.2,11.4,4.5,15.3,2.8z M5.4,10.8c-0.3,0.4-0.6,0.8-0.9,1.3c0,0,0,0,0,0
		C4.8,11.6,5.1,11.2,5.4,10.8z M4.2,12.8c1.2,1.3,2.5,2.4,3.9,3.4l0,0c-0.5,1-0.9,1.9-1.2,3C5.2,18,4.2,16,4.2,13.7
		C4.2,13.4,4.2,13.1,4.2,12.8z M4.1,12.7L4.1,12.7c-0.2,0.4-0.5,0.8-0.7,1.2C3.6,13.5,3.9,13.1,4.1,12.7z M0.7,25
		c0-4,1-7.8,2.7-11.1c0.1,2.5,1.3,4.7,3.2,6.1C6.2,21.6,6,23.3,6,25c0,1,0.1,2.1,0.2,3l0,0c-0.8,0.1-1.5,0.1-2.3,0.1
		c-1,0-2-0.1-3-0.2C0.8,27,0.7,26,0.7,25z M1,28.7c0.9,0.1,1.9,0.1,2.9,0.1c0.8,0,1.7,0,2.5-0.1c0.4,2,1.1,3.9,2.1,5.6
		c-1.4,1-2.8,2.2-4,3.5C2.7,35.1,1.5,32,1,28.7z M25,49.3c-8.4,0-15.8-4.3-20.2-10.8c1.2-1.3,2.5-2.4,4-3.5l0,0
		c1.4,2.2,3.2,4.2,5.4,5.7l0,0c0.2,0.2,0.4,0.3,0.7,0.4l0,0c0.9,0.5,1.8,1,2.7,1.4c1,3.1,3.9,5.4,7.4,5.4c3.4,0,6.4-2.3,7.4-5.4
		c0.9-0.4,1.9-0.9,2.7-1.4l0,0c0.2-0.1,0.4-0.3,0.7-0.4c0,0,0,0,0,0c2.2-1.5,4-3.4,5.4-5.7c1.4,1,2.8,2.2,4,3.5
		C40.8,45,33.4,49.3,25,49.3z M45.6,37.8c-1.2-1.3-2.6-2.4-4-3.5c0,0,0,0,0,0c1-1.7,1.7-3.6,2.1-5.6l0,0c0.8,0.1,1.6,0.1,2.5,0.1
		c1,0,1.9,0,2.9-0.1C48.5,32,47.3,35.1,45.6,37.8z M49.1,28c-1,0.1-2,0.2-3,0.2c-0.8,0-1.6,0-2.3-0.1l0,0c0.2-1,0.2-2,0.2-3
		c0,0,0,0,0,0.1c0,0,0,0,0-0.1c0,0,0-0.1,0-0.1c0-1.7-0.2-3.3-0.7-4.9l0,0c1.9-1.4,3.2-3.6,3.2-6.1c1.7,3.3,2.7,7.1,2.7,11.1
		C49.3,26,49.2,27,49.1,28z"/>
</g>
</svg>
