<?xml version="1.0" encoding="utf-8"?>
<!-- Generator: Adobe Illustrator 19.2.1, SVG Export Plug-In . SVG Version: 6.00 Build 0)  -->
<svg version="1.1" id="Layer_1" xmlns="http://www.w3.org/2000/svg" xmlns:xlink="http://www.w3.org/1999/xlink" x="0px" y="0px"
	 width="1110px" height="400px" viewBox="0 0 1110 400" enable-background="new 0 0 1110 400" xml:space="preserve">
<path fill="#4D4D4D" d="M400,200L400,200C400,89.5,310.5,0,200,0C89.7,0,0.3,89.3,0,199.5c0,0.2,0,0.3,0,0.5c0,0.6,0,1.3,0,1.9
	C1.1,311.5,90.2,400,200,400c110.2,0,199.6-89.1,200-199.3C400,200.5,400,200.2,400,200L400,200z M255.6,284.5
	c-8.2,9.9-22.1,14.9-32.9,11.9c-8.5-2.3-14.2-9.7-16.6-19.9c-0.5-2,0-6.8,3.9-8.9c4-2.1,8.8-2.4,14.7,0.1c8.3,3.6,16.4,2,21.6-4.4
	c5.8-7,6.5-17.7,1.6-24.9c-1.9-2.9-7.3-8.6-18.1-7.3c-3.3-16.9-1.2-36.4,4.8-55.4c0,0,0.1,0,0.1,0c3.1,10.2,9.8,17.3,19.1,19.7
	c2.3,0.6,4.7,0.9,7.1,0.9c9.1,0,18.2-4.2,23.7-11.4c5.4-7,6.6-15.6,3.6-24.2c1.2-0.5,2.4-1.1,3.6-1.7c4.7,8.4,13.8,28.2,9,49.5
	c-3.7,16.4-14.9,30.6-33.3,42.3l-8.3,4.9C265.2,268.4,259.6,279.7,255.6,284.5z M132.6,250.7c-18.4-11.7-29.6-25.9-33.3-42.3
	c-4.8-21.2,4.3-41.1,9-49.5c1.2,0.6,2.4,1.1,3.6,1.7c-3,8.6-1.8,17.2,3.6,24.2c5.6,7.2,14.7,11.4,23.7,11.4c2.4,0,4.7-0.3,7.1-0.9
	c9.3-2.4,16-9.5,19.1-19.7c0,0,0.1,0,0.1,0c6,19.1,8.1,38.6,4.8,55.4c-10.8-1.3-16.1,4.4-18.1,7.3c-4.9,7.2-4.2,17.9,1.6,24.9
	c5.2,6.3,13.3,8,21.6,4.4c5.9-2.5,10.8-2.2,14.7-0.1c3.9,2.1,4.4,7,3.9,8.9c-2.4,10.2-8.2,17.6-16.6,19.9
	c-10.9,3-24.7-2.1-32.9-11.9c-4-4.8-9.7-16.1-3.6-28.8L132.6,250.7z M239,163.5c10.9-26.7,29.2-51.2,51.3-64.8
	c1.7-1.1,3.6-2.1,5.5-3.1c23.7,21.8,39.9,51.4,44.5,84.8c-7.2-3.8-16.4-6-29.7-4.7c-4.2-15.8-11.7-26.7-12.2-27.4l-2.9-4.1l-4.4,2.3
	C271.9,156.8,250.9,161.5,239,163.5z M275.5,177.9c-4.3,5.5-12.2,8.2-18.9,6.5c-5-1.3-8.6-4.9-10.7-10.6c8.5-1.7,19.7-4.4,31.6-8.8
	C279.4,170.9,277.7,175.2,275.5,177.9z M284.4,89.1c-47.2,29-77.9,100.6-64.4,150.3l1.6,5.7l5.6-1.8c3.9-1.2,8.9-2,11.2,1.4
	c2,3,1.6,8.2-1,11.3c-2,2.4-4.7,2.8-8.4,1.2c-13.8-5.9-22.8-1.3-27,1.9c-0.8,0.6-1.5,1.2-2.1,1.8c-0.7-0.6-1.4-1.2-2.1-1.8
	c-4.2-3.3-13.2-7.9-27-1.9c-3.7,1.6-6.4,1.2-8.4-1.2c-2.5-3-3-8.3-1-11.3c2.3-3.4,7.3-2.7,11.2-1.4l5.6,1.8l1.6-5.7
	c13.5-49.7-17.2-121.4-64.4-150.3c-0.7-0.4-1.4-0.8-2.2-1.2c23.9-18.5,53.9-29.6,86.5-29.6c0,0,0.1,0,0.1,0s0.1,0,0.1,0
	c32.5,0,62.5,11.1,86.5,29.6C285.8,88.3,285.1,88.6,284.4,89.1z M200,301.1c-2.3,0-4.5-0.2-6.8-0.7c2.4-2.1,4.7-4.8,6.8-8.3
	c2,3.4,4.3,6.1,6.8,8.3C204.5,300.9,202.3,301.1,200,301.1z M220.1,307.5c2.9,0.8,6,1.1,9.1,1.1c2.7,0,5.4-0.3,8.1-0.9
	c-9.7,9.7-23,15.5-37.2,15.5c0,0-0.1,0-0.1,0s-0.1,0-0.1,0c-14.2,0-27.5-5.8-37.2-15.5c2.7,0.5,5.4,0.9,8.1,0.9
	c3.1,0,6.2-0.4,9.1-1.1c6.1,3.3,13,5.1,20,5.1c0,0,0.1,0,0.1,0c0,0,0.1,0,0.1,0C207.1,312.6,213.9,310.8,220.1,307.5z M161,163.5
	c-11.9-2-32.8-6.8-52.2-17l-4.4-2.3l-2.9,4.1c-0.5,0.7-8,11.6-12.2,27.4c-13.3-1.2-22.5,1-29.7,4.7c4.6-33.4,20.9-63,44.5-84.8
	c1.9,1,3.8,2,5.5,3.1C131.7,112.3,150.1,136.9,161,163.5z M154,173.8c-2,5.6-5.6,9.2-10.7,10.6c-6.7,1.7-14.7-1-18.9-6.5
	c-2.1-2.7-3.9-7.1-2.1-12.9C134.3,169.4,145.5,172.2,154,173.8z M87.1,186.9c-0.9,7.4-0.8,15.5,1,23.9c2.9,13.1,9.8,24.8,20.3,35.2
	c-11.2,7.3-21.5,16-30.6,25.8c-12.4-21.1-19.6-45.6-19.6-71.8c0-1.7,0.1-3.3,0.1-5C65.1,189.4,72.9,185.8,87.1,186.9z M117.3,253.8
	c3.1,2.4,6.3,4.7,9.8,7c-1.7,10.7,0.9,22.1,8.6,31c0.3,0.3,0.6,0.6,0.9,1c-5,9-7.9,19-8.7,29.3c-17.3-10.2-32.2-24.1-43.8-40.4
	C93.8,270.9,105,261.5,117.3,253.8z M144.4,302.6c11.4,19.6,32.5,32,55.5,32c0,0,0.1,0,0.1,0c0,0,0.1,0,0.1,0
	c23,0,44.1-12.4,55.5-32c3.5,7.8,5.3,16.2,5.3,24.9c0,0.2,0,0.3,0,0.5c-18.4,8.8-39,13.7-60.8,13.7c0,0-0.1,0-0.1,0s-0.1,0-0.1,0
	c-21.7,0-42.4-4.9-60.8-13.7c0-0.2,0-0.3,0-0.5C139.1,318.8,140.9,310.4,144.4,302.6z M264.3,291.8c7.7-8.9,10.3-20.3,8.6-31
	c3.5-2.2,6.8-4.6,9.8-7c12.3,7.7,23.5,17.1,33.2,27.8C304.3,298,289.3,311.8,272,322c-0.8-10.3-3.7-20.3-8.7-29.3
	C263.6,292.4,264,292.1,264.3,291.8z M291.6,246c10.5-10.4,17.4-22.1,20.3-35.2c1.9-8.4,1.9-16.5,1-23.9c14.2-1.1,22,2.5,28.8,8.1
	c0.1,1.7,0.1,3.3,0.1,5c0,26.2-7.2,50.7-19.6,71.8C313.1,262,302.8,253.4,291.6,246z M337.2,132.1c9.8-7,18.1-14.4,23.8-19.8
	c0.1,8.8-2.6,22.6-16.4,37.4C342.5,143.6,340,137.8,337.2,132.1z M331.7,122c-6.8-11.4-14.9-21.8-24.3-31c14.3-4.3,31.5-3.7,49,9.9
	C351.5,105.8,342.6,114.1,331.7,122z M297.9,82.3c-11.3-9.4-24-17.2-37.7-23.1c10.7-6.9,20.2-15.7,27.9-25.9
	c22.9,12.2,43,28.9,59.1,49C331.5,75.6,314.7,75.6,297.9,82.3z M246.4,54.1c-14.6-4.7-30.2-7.2-46.3-7.2c0,0-0.1,0-0.1,0
	s-0.1,0-0.1,0c-16.1,0-31.7,2.5-46.3,7.2c-12.1-6.4-22.8-15.2-31.3-25.9c23.7-10.8,50-16.8,77.6-16.8c0,0,0.1,0,0.1,0s0.1,0,0.1,0
	c27.7,0,53.9,6,77.6,16.8C269.2,38.9,258.5,47.7,246.4,54.1z M139.8,59.2c-13.7,5.9-26.4,13.7-37.7,23.1c-16.9-6.7-33.7-6.7-49.4,0
	c16.1-20.1,36.2-36.8,59.1-49C119.7,43.5,129.1,52.3,139.8,59.2z M92.6,91c-9.4,9.2-17.6,19.7-24.3,31
	c-10.9-7.9-19.8-16.3-24.7-21.1C61.1,87.3,78.2,86.7,92.6,91z M62.8,132.1c-2.8,5.7-5.3,11.5-7.4,17.6
	c-13.8-14.8-16.6-28.6-16.4-37.4C44.6,117.7,53,125,62.8,132.1z M51.6,161.9c-2.3,8.9-3.8,18.2-4.4,27.7c-1.3,1.2-2.5,2.4-3.7,3.6
	c-8,7.8-15.7,15.1-31.8,17.7c-0.2-3.6-0.3-7.3-0.3-10.9c0-27.8,6.1-54.3,17-78.1C30.2,133.2,36.2,147.5,51.6,161.9z M47,205.5
	c1,27.5,9.3,53.2,23,75.2c-8.1,10-15.1,20.9-20.7,32.5c-19.6-26-32.5-57.1-36.5-91C29.6,219.6,39.2,212.7,47,205.5z M76.6,290.6
	c13.6,18.4,31.2,33.7,51.6,44.6c2,19.1,11.5,35.9,25.5,47.6c-38.1-9.6-71.6-30.9-96.5-59.8C62.3,311.4,68.9,300.6,76.6,290.6z
	 M140.7,341.2c18.2,7.7,38.2,11.9,59.2,11.9c0,0,0.1,0,0.1,0s0.1,0,0.1,0c21,0,41-4.2,59.2-11.9c-6.2,27-30.4,47.1-59.2,47.1
	c0,0-0.1,0-0.1,0s-0.1,0-0.1,0C171.1,388.3,147,368.1,140.7,341.2z M271.8,335.2c20.3-10.8,38-26.1,51.6-44.6
	c7.8,10,14.3,20.9,19.4,32.4c-24.9,28.9-58.4,50.2-96.5,59.8C260.3,371.1,269.8,354.2,271.8,335.2z M330,280.8
	c13.7-22,22-47.7,23-75.2c7.8,7.2,17.4,14.1,34.3,16.7c-4,33.9-17,65-36.5,91C345.1,301.6,338.2,290.7,330,280.8z M356.5,193.2
	c-1.2-1.2-2.5-2.4-3.7-3.6c-0.6-9.5-2.1-18.8-4.4-27.7c15.4-14.5,21.4-28.7,23.3-40c10.9,23.8,17,50.2,17,78.1
	c0,3.7-0.1,7.3-0.3,10.9C372.2,208.3,364.5,201,356.5,193.2z"/>
<g>
	<polygon fill="#4D4D4D" points="516.6,123.4 517.7,119.4 517.7,113.5 467.4,113.5 467.4,122.9 487.2,123.3 487.2,178.9 
		497.9,178.9 497.9,123 516.3,123.4 	"/>
	<polygon fill="#4D4D4D" points="537.6,150.5 568.3,150.1 568.3,178.9 578.5,178.9 578.5,113.5 568.3,113.5 568.3,140.6 
		537.6,140.6 537.6,113.3 532.4,113.3 527.3,114.8 527.3,178.9 537.6,178.9 	"/>
	<polygon fill="#4D4D4D" points="635,169.5 604.9,169.1 604.9,149.9 628.6,150.3 629,150.3 629,140.4 604.9,140.4 604.9,123 
		632.5,123.4 633.6,118.2 633.6,113.5 599.7,113.5 594.6,114.9 594.6,178.9 635,178.9 	"/>
	<polygon fill="#4D4D4D" points="712.5,169.5 685.1,169.1 685.1,113.5 679.9,113.5 674.9,114.9 674.9,178.9 712.5,178.9 	"/>
	<polygon fill="#4D4D4D" points="764.4,169.5 734.3,169.1 734.3,149.9 757.9,150.3 758.3,150.3 758.3,140.4 734.3,140.4 734.3,123 
		761.8,123.4 762.9,118.2 762.9,113.5 729,113.5 724,114.9 724,178.9 764.4,178.9 	"/>
	<path fill="#4D4D4D" d="M790.9,162.6l23.1-0.4l5.8,16.4l0.1,0.3H831l-23.1-64.5l-0.3-0.9h-9.8l-23.4,64.9l-0.2,0.5h10.9
		L790.9,162.6z M802.5,128.1l2,7.3l6.1,17.4h-16.3l6.1-17.5L802.5,128.1z"/>
	<path fill="#4D4D4D" d="M861.7,179.8c11.5,0,19.8-2.6,24-7.6c3.9-4.5,6.3-14.7,6.3-26c0-6.9-0.5-19.4-4-25.8l-0.2-0.3
		c-5.1-5.1-12.9-7.5-24.5-7.5c-6.4,0-14.6,0.7-20.4,1.7l-1.1,0.2v63.8l1.2,0.2C848.7,179.4,854.6,179.8,861.7,179.8z M852.2,169.3
		v-46.1c1.9-0.2,6.2-0.7,11.2-0.7c8,0,13.1,1.4,15.2,4.1c2.8,3.6,3.1,11.5,3.1,19.6c0,8.4-1.1,14.8-3.3,19.7c-3,2.5-8.7,4-15.8,4
		C857.5,169.9,853.8,169.5,852.2,169.3z"/>
	<polygon fill="#4D4D4D" points="906.7,114.8 906.7,178.9 917,178.9 917,113.3 911.8,113.3 	"/>
	<polygon fill="#4D4D4D" points="945.3,139 944.9,131 947.8,135.7 978.2,178.8 978.3,178.9 987.5,178.9 987.5,113.5 977.7,113.5 
		977.7,153.4 978.1,161.4 975.3,156.7 944.8,113.5 944.7,113.3 940.5,113.3 935.5,114.8 935.5,178.9 945.3,178.9 	"/>
	<path fill="#4D4D4D" d="M1049.8,175.5v-34H1023l0,5l1.1,4.9l15.4-0.2v17.8c-2.3,0.5-6.4,1-10.6,1c-3.1,0-10.6-0.4-13.4-4.1
		c-2.8-3.7-3.1-12.9-3.1-19.6c0-8,1.2-15,3.3-19.7c3-2.6,7.5-4,13.2-4c7.3,0,15.3,2.5,15.6,2.6l1,0.3l3.5-5v-5l-1-0.3
		c-4.4-1.3-9.2-2.5-19.1-2.5c-8.7,0-16.5,2.9-20.5,7.6c-4.4,5.1-6.3,17.1-6.3,26c0,4.3,0.3,19,4,25.8l0.2,0.3c5,5,12.6,7.5,22.7,7.5
		c7.7,0,15.2-1.5,20.1-3.9L1049.8,175.5z"/>
</g>
<g>
	<path fill="#4D4D4D" d="M513.5,218.9c-2.2-2.2-7.8-6-21-6c-6.1,0-12.2,0.7-17.4,2l-1,0.3v64.1h10.3v-24.7l0.1,0
		c1.5,0.1,3.2,0.2,6.6,0.2c4.6,0,15.6-0.5,20.1-5.4c3.3-3.6,5-9.1,5-16.1c0-5.8-0.7-10.4-2.2-13.8L513.5,218.9z M503.7,242.3
		c-2,1.4-7.9,2.5-11.9,2.5c-2.7,0-5.2-0.1-7.5-0.3v-21.3c1.6-0.1,4.5-0.3,8.1-0.3c5.3,0,9,0.9,11,2.6c1.5,1.3,2.3,4,2.3,7.7
		C505.7,237.2,504.9,241,503.7,242.3z"/>
	<path fill="#4D4D4D" d="M564.2,279l0.1,0.2h13.8l-20.4-27.3c3.1-0.9,5.3-2.2,6.8-3.8c3.2-3.6,5-9,5-15.6c0-6.7-1.2-10.9-2.2-13.2
		l-0.2-0.3c-1.8-1.8-7.2-6-20.2-6c-6.1,0-12.2,0.7-17.4,2l-1,0.3v64.1h10.3v-26c1.9,0.2,4.2,0.3,5.6,0.3h2L564.2,279z M557.1,241.5
		c-2,1.4-7,2.1-11.1,2.1c-2.7,0-5.2-0.1-7.5-0.3v-20.2c1.6-0.1,4.5-0.3,8.1-0.3c4.6,0,8.2,0.9,10.1,2.6c1.4,1.3,2.3,3.9,2.3,7.1
		C559.1,235.8,558.3,240.1,557.1,241.5z"/>
	<path fill="#4D4D4D" d="M589.7,220.5c-4.4,5.1-6.3,17.1-6.3,26c0,4.3,0.3,19,4,25.8l0.2,0.3c5,5,12.6,7.5,22.7,7.5
		c8.7,0,16.6-2.9,20.5-7.6c4.4-5.1,6.3-17.1,6.3-26c0-4.3-0.3-19-4-25.8l-0.2-0.3c-5-5-12.6-7.5-22.7-7.5
		C601.5,212.9,593.7,215.8,589.7,220.5z M593.6,246.5c0-8,1.2-15,3.3-19.7c3-2.6,7.5-4,13.2-4c3.1,0,10.6,0.4,13.4,4.1
		c2.8,3.7,3.1,12.9,3.1,19.6c0,8-1.2,15-3.3,19.7c-3,2.6-7.5,4-13.2,4c-3.1,0-10.6-0.4-13.4-4.1
		C593.9,262.3,593.6,253.1,593.6,246.5z"/>
	<path fill="#4D4D4D" d="M692.5,233.1c0-5.8-0.7-10.4-2.2-13.8l-0.2-0.3c-2.2-2.2-7.8-6-21-6c-6.1,0-12.2,0.7-17.4,2l-1,0.3v64.1
		h10.3v-24.7l0.1,0c1.5,0.1,3.2,0.2,6.6,0.2c4.6,0,15.6-0.5,20.1-5.4C690.8,245.6,692.5,240.2,692.5,233.1z M682.2,233.1
		c0,4.1-0.9,7.8-2,9.2c-2,1.4-7.9,2.5-11.9,2.5c-2.7,0-5.2-0.1-7.5-0.3v-21.3c1.6-0.1,4.5-0.3,8.1-0.3c5.3,0,9,0.9,11,2.6
		C681.4,226.6,682.2,229.4,682.2,233.1z"/>
	<polygon fill="#4D4D4D" points="715.1,250.1 738.7,250.6 739.1,250.6 739.1,240.7 715.1,240.7 715.1,223.2 742.6,223.6 
		743.7,218.5 743.7,213.8 709.8,213.8 704.8,215.2 704.8,279.2 745.1,279.2 745.1,269.8 715.1,269.4 	"/>
	<path fill="#4D4D4D" d="M799.7,232.5c0-6.7-1.2-10.9-2.2-13.2l-0.2-0.3c-1.8-1.8-7.2-6-20.2-6c-6.1,0-12.2,0.7-17.4,2l-1.1,0.3
		v64.1h10.3v-26c1.9,0.2,4.2,0.3,5.6,0.3h2l17.9,25.6l0.1,0.2h13.8L788,251.9c3.1-0.9,5.3-2.2,6.8-3.8
		C798,244.5,799.7,239.1,799.7,232.5z M789.4,232.5c0,3.2-0.8,7.6-2,9c-2,1.4-7,2.1-11.1,2.1c-3.3,0-5.9-0.2-7.5-0.3v-20.2
		c1.6-0.1,4.5-0.3,8.1-0.3c4.6,0,8.2,0.9,10.1,2.6C788.6,226.6,789.4,229.2,789.4,232.5z"/>
	<polygon fill="#4D4D4D" points="839.4,279.2 839.4,223.2 857.7,223.6 858,223.7 859.1,219.7 859.2,213.8 808.8,213.8 808.8,223.2 
		828.6,223.6 828.6,279.2 	"/>
	<polygon fill="#4D4D4D" points="881.2,213.6 875.9,213.6 870.9,215 870.9,279.2 881.2,279.2 	"/>
	<polygon fill="#4D4D4D" points="940.7,269.8 910.6,269.4 910.6,250.1 934.3,250.6 934.7,250.6 934.7,240.7 910.6,240.7 
		910.6,223.2 938.2,223.6 939.3,218.5 939.3,213.8 905.4,213.8 900.3,215.2 900.3,279.2 940.7,279.2 	"/>
	<path fill="#4D4D4D" d="M989,274.2c3.4-3.8,4-9.6,4-12.8c0-4.2-0.8-7.8-2.3-10.2l-21.2-13.9c-3.2-2-5-5.2-5-8.8
		c0-1,0.3-2.9,0.9-3.7c1.4-1.3,4.2-2,7.3-2l3.9,0.3l8.9,2.3l3.7-5.8v-4.1l-0.9-0.3c-0.2-0.1-6.2-2.3-13.5-2.3
		c-13.9,0-20.6,5.6-20.6,17.1c0,4.2,1.6,8.8,3.1,11.5l19.7,13.3c4.3,2.9,5.4,4.4,5.4,8c0,2.4-0.4,4-0.6,4.6
		c-1.5,1.2-5.4,2.5-8.6,2.5l-4.8-0.3l-11.7-4.1l-0.3-0.1l-3.8,6v3.9l0.7,0.4c0.3,0.2,7,4.1,17.8,4.1
		C979.5,280,985.5,278.1,989,274.2z"/>
</g>
<g>
	<path fill="#4D4D4D" d="M516.6,320.7c-5-5-12.6-7.5-22.7-7.5c-8.7,0-16.6,2.9-20.5,7.6c-4.4,5.1-6.3,17.1-6.3,26
		c0,4.3,0.3,19,4,25.8l0.2,0.3c5,5,12.6,7.5,22.7,7.5c8.7,0,16.5-2.9,20.5-7.6c4.4-5.1,6.3-17.1,6.3-26c0-4.3-0.3-19-4-25.8
		L516.6,320.7z M510.4,346.8c0,8-1.2,15-3.3,19.7c-3,2.6-7.5,4-13.2,4c-3.1,0-10.6-0.4-13.4-4.1c-2.8-3.7-3.1-12.9-3.1-19.6
		c0-8,1.2-15,3.3-19.7c3-2.6,7.5-4,13.2-4c3.1,0,10.6,0.4,13.4,4.1C510.1,330.9,510.4,340.1,510.4,346.8z"/>
	<polygon fill="#4D4D4D" points="532.5,315.5 532.5,379.5 542.8,379.5 542.8,352.5 565.6,352.9 566,352.9 566,343 542.8,343 
		542.8,323.5 569.5,323.9 570.6,318.8 570.6,314 537.6,314 	"/>
	<polygon fill="#4D4D4D" points="600.9,323.5 620.7,323.9 620.7,379.5 631.5,379.5 631.5,323.5 649.8,323.9 650.1,323.9 651.2,320 
		651.3,314 600.9,314 	"/>
	<polygon fill="#4D4D4D" points="701.8,341.2 671.1,341.2 671.1,313.9 665.9,313.9 660.8,315.3 660.8,379.5 671.1,379.5 671.1,351 
		701.8,350.7 701.8,379.5 712.1,379.5 712.1,314 701.8,314 	"/>
	<polygon fill="#4D4D4D" points="738.4,350.4 762.1,350.8 762.5,350.8 762.5,340.9 738.4,340.9 738.4,323.5 766,323.9 767.1,318.8 
		767.1,314 733.2,314 728.2,315.5 728.2,379.5 768.5,379.5 768.5,370 738.4,369.6 	"/>
	<polygon fill="#4D4D4D" points="861,357 859.7,365 857.8,356.8 846,314.3 845.9,314 836.5,314 824.6,356.9 822.6,365.1 821.4,357 
		814,314.2 813.9,313.9 808.8,313.9 803.5,315.4 814.8,379.1 814.9,379.5 828.8,379.5 838.9,341.6 841,332.1 843.2,341.7 
		853.2,379.2 853.2,379.5 867.2,379.5 878.4,314.5 878.5,314 868.4,314 	"/>
	<path fill="#4D4D4D" d="M935.1,320.7c-5-5-12.6-7.5-22.7-7.5c-8.7,0-16.5,2.9-20.5,7.6c-4.4,5.1-6.3,17.1-6.3,26
		c0,4.3,0.3,19,4,25.8l0.2,0.3c5,5,12.6,7.5,22.7,7.5c8.7,0,16.6-2.9,20.5-7.6c4.4-5.1,6.3-17.1,6.3-26c0-4.3-0.3-19-4-25.8
		L935.1,320.7z M929,346.8c0,8-1.2,15-3.3,19.7c-3,2.6-7.5,4-13.2,4c-3.1,0-10.6-0.4-13.4-4.1c-2.8-3.7-3.1-12.9-3.1-19.6
		c0-8,1.2-15,3.3-19.7c3-2.6,7.5-4,13.2-4c3.1,0,10.6,0.4,13.4,4.1C928.7,330.9,929,340.1,929,346.8z"/>
	<path fill="#4D4D4D" d="M986.8,348.4c3.2-3.6,5-9,5-15.6c0-6.7-1.2-10.9-2.2-13.2l-0.2-0.3c-1.8-1.8-7.2-6-20.2-6
		c-6.2,0-12.2,0.7-17.4,2l-1,0.3v64.1h10.3v-26c1.9,0.2,4.2,0.3,5.6,0.3h2l17.9,25.6l0.1,0.2h13.8L980,352.2
		C983.1,351.2,985.4,349.9,986.8,348.4z M960.9,323.4c1.6-0.1,4.5-0.3,8.1-0.3c4.6,0,8.2,0.9,10.1,2.6c1.4,1.3,2.3,3.9,2.3,7.1
		c0,3.2-0.8,7.6-2,9c-2,1.4-7,2.1-11.1,2.1c-3.3,0-5.9-0.2-7.5-0.3V323.4z"/>
	<polygon fill="#4D4D4D" points="1021,314 1015.8,314 1010.7,315.5 1010.7,379.5 1048.4,379.5 1048.4,370 1021,369.6 	"/>
	<path fill="#4D4D4D" d="M1106,321l-0.2-0.3c-5.1-5.1-12.9-7.5-24.5-7.5c-6.4,0-14.6,0.7-20.4,1.7l-1.1,0.2v63.8l1.2,0.2
		c5.6,0.9,11.5,1.3,18.6,1.3c11.5,0,19.8-2.6,24-7.6c3.9-4.5,6.3-14.7,6.3-26C1110,339.9,1109.5,327.3,1106,321z M1099.7,346.8
		c0,8.4-1.1,14.8-3.3,19.7c-3,2.5-8.7,4-15.8,4c-5,0-8.6-0.4-10.5-0.6v-46.1c1.9-0.2,6.2-0.7,11.2-0.7c8,0,13.1,1.4,15.2,4.1
		C1099.3,330.8,1099.7,338.7,1099.7,346.8z"/>
</g>
<g>
	<path fill="#4D4D4D" d="M474.2,21c3.4-0.8,7.4-1.3,11.5-1.3c7.8,0,11.8,2,13.5,3.8c0.8,1.8,1.4,4.6,1.4,8.9c0,4.2-0.9,7.8-3.1,10.3
		c-2.3,2.5-8,3.3-12.8,3.3c-3,0-4.1-0.1-5.4-0.2v16.7h-5.1V21z M479.3,24.8v16.1c1.3,0.2,3.3,0.3,6,0.3c2.6,0,6.9-0.7,8.6-1.9
		c1.2-1.3,1.7-4.2,1.7-6.9c0-2.8-0.6-4.8-1.9-5.9c-1.4-1.2-3.9-2-8-2C481.8,24.5,479.3,24.8,479.3,24.8z"/>
	<path fill="#4D4D4D" d="M518.1,63.1c-8.5,0-11-3.9-11-3.9s-1.2-2.2-1.2-10.1c0-3.9,0.7-8.7,2.5-11.3c1.9-2.5,5.5-3.9,9.7-3.9
		c8.5,0,11.1,3.9,11.1,3.9s1.2,2.2,1.2,10.1c0,3.9-0.7,8.7-2.5,11.3C525.9,61.7,522.3,63.1,518.1,63.1z M510.6,48.4
		c0,4.1,0.5,6.6,1.6,8.1c1.2,1.5,3,2,5.9,2c2.5,0,4.3-0.5,6.1-1.6c0.8-2.1,1.4-5.4,1.4-8.6c0-4.1-0.5-6.6-1.6-8.1
		c-1.2-1.5-3-2-5.9-2c-2.5,0-4.3,0.5-6.1,1.6C511.1,42,510.6,45.3,510.6,48.4z"/>
	<path fill="#4D4D4D" d="M535.1,34.9l1.9-0.6h2.9l5.6,23.9l7.5-23.9h4.9l7.3,23.9l5.9-23.9h4.8l-7.5,28.2h-6.9l-4.1-14.7l-2-8
		l-2.1,7.9l-4.5,14.7h-6.7L535.1,34.9z"/>
	<path fill="#4D4D4D" d="M582.9,37.6c1.9-2.5,5.5-3.8,9.7-3.8c4.5,0,7.6,1.3,9.7,3.9c0.8,1.7,1.2,5.6,1.2,10.5L603,50l-18,0.3
		c0.1,3,0.8,5,1.8,6.3c1.2,1.5,2.9,2,5.7,2c0.7,0,1.7-0.1,1.7-0.1l7.3-1.9l1.4,3c-2.5,2.2-5.7,3.5-10.4,3.5c-4.8,0-8.8-1.4-10.8-3.9
		c-1.1-2.9-1.4-7.3-1.4-9.8C580.3,45.1,581.1,40.2,582.9,37.6z M599,45.7c-0.1-2.5-0.4-4.2-1.3-5.4c-1.2-1.5-2.9-2-5.2-2
		c-2.5,0-4.6,0.6-5.9,1.6c-0.9,1.4-1.5,3.9-1.6,6.4L599,45.7z"/>
	<path fill="#4D4D4D" d="M628.3,37.7l-0.6,1.4c-1.3-0.2-2.6-0.3-3.5-0.3c-3.5,0-6.6,1.6-8,3.7v20h-4.8V45.1l-0.6-10.1l1.9-0.6h2.9
		l0.3,3.9c1.7-1.7,3.4-3.2,5-3.9c0,0,1.5-0.6,3.8-0.6c1.3,0,2.6,0.2,3.5,0.5V37.7z"/>
	<path fill="#4D4D4D" d="M635.2,37.6c1.9-2.5,5.5-3.8,9.7-3.8c4.5,0,7.6,1.3,9.7,3.9c0.8,1.7,1.2,5.6,1.2,10.5l-0.6,1.7l-18,0.3
		c0.1,3,0.8,5,1.8,6.3c1.2,1.5,2.9,2,5.7,2c0.7,0,1.7-0.1,1.7-0.1l7.3-1.9l1.4,3c-2.5,2.2-5.7,3.5-10.4,3.5c-4.8,0-8.8-1.4-10.8-3.9
		c-1.1-2.9-1.4-7.3-1.4-9.8C632.6,45.1,633.4,40.2,635.2,37.6z M651.3,45.7c-0.1-2.5-0.4-4.2-1.3-5.4c-1.2-1.5-2.9-2-5.2-2
		c-2.5,0-4.6,0.6-5.9,1.6c-0.9,1.4-1.5,3.9-1.6,6.4L651.3,45.7z"/>
	<path fill="#4D4D4D" d="M683.5,20.3h2.9v34.4l1.7,7.3l-1.9,0.6h-3.2l-1-4.5l-0.5,0.5c-1.7,1.7-3.7,3.2-5.2,3.9c0,0-1.5,0.6-3.8,0.6
		c-4.2,0-7-1.6-8.7-3.9c0,0-1.2-2.2-1.2-10.1c0-3.9,0.7-8.7,2.5-11.3c1.9-2.5,5-3.9,9.2-3.9c2.8,0,5.2,0.8,7.2,1.9V20.8L683.5,20.3z
		 M682,55.1V46c0-3-0.4-4.7-1.1-5.6c-1.2-1.6-3-2-5.9-2c-2.5,0-4.3,0.5-6.1,1.6c-0.8,2.1-1.4,5.4-1.4,8.6c0,4.1,0.5,6.6,1.6,8.1
		c1.2,1.5,2.6,2,4.7,2C677.3,58.6,680.5,56.7,682,55.1z"/>
	<path fill="#4D4D4D" d="M720.4,34.3c0,0,1.5-0.6,3.8-0.6c4.2,0,7,1.6,8.7,3.9c0,0,1.2,2.2,1.2,10.1c0,3.9-0.7,8.7-2.5,11.3
		c-1.9,2.5-5.5,3.9-9.8,3.9c-9,0-11.5-3.9-11.5-3.9V20.8l1.9-0.6h2.9v18C716.9,36.6,718.9,35.1,720.4,34.3z M714.9,41.8v7.8
		c0,3.4,0.3,6,1.1,6.9c1.3,1.5,3,2,5.9,2c2.5,0,4.3-0.5,6.1-1.6c0.8-2.1,1.4-5.4,1.4-8.6c0-4.1-0.5-6.6-1.6-8.1
		c-1.2-1.5-2.6-2-4.7-2C719.5,38.3,716.1,40.2,714.9,41.8z"/>
	<path fill="#4D4D4D" d="M738.9,34.8l1.9-0.6h3.3l8.1,26.1h0.2l0.9-4.1l7-21.9h4.7l-7.8,24.5c-2.7,8.5-4.6,11.2-7,13.5
		c-1.5,1.5-4.1,2.9-6.4,2.9l-1.2-3.9l2.9-1.4c2.1-1,3.8-3,5.7-7.4h-3.4L738.9,34.8z"/>
</g>
</svg>
